<?xml version="1.0" encoding="UTF-8"?>
<svg id="Layer_1" data-name="Layer 1" xmlns="http://www.w3.org/2000/svg" xmlns:xlink="http://www.w3.org/1999/xlink" viewBox="0 0 800 800">
  <defs>
    <style>
      .cls-1 {
        fill: #2b2b2b;
      }

      .cls-2 {
        fill: gray;
      }

      .cls-3 {
        fill: url(#linear-gradient-8);
      }

      .cls-4 {
        fill: url(#linear-gradient-7);
      }

      .cls-5 {
        fill: url(#linear-gradient-5);
      }

      .cls-6 {
        fill: url(#linear-gradient-6);
      }

      .cls-7 {
        fill: url(#linear-gradient-9);
      }

      .cls-8 {
        fill: url(#linear-gradient-4);
      }

      .cls-9 {
        fill: url(#linear-gradient-3);
      }

      .cls-10 {
        fill: url(#linear-gradient-2);
      }

      .cls-11 {
        fill: url(#linear-gradient);
      }

      .cls-12 {
        fill: #4d4d4d;
      }

      .cls-13 {
        fill: #666;
      }

      .cls-14 {
        fill: url(#linear-gradient-10);
      }

      .cls-15 {
        fill: url(#linear-gradient-11);
      }

      .cls-16 {
        fill: url(#linear-gradient-12);
      }

      .cls-17 {
        fill: url(#linear-gradient-13);
      }

      .cls-18 {
        fill: url(#linear-gradient-19);
      }

      .cls-19 {
        fill: url(#linear-gradient-14);
      }

      .cls-20 {
        fill: url(#linear-gradient-21);
      }

      .cls-21 {
        fill: url(#linear-gradient-20);
      }

      .cls-22 {
        fill: url(#linear-gradient-22);
      }

      .cls-23 {
        fill: url(#linear-gradient-23);
      }

      .cls-24 {
        fill: url(#linear-gradient-28);
      }

      .cls-25 {
        fill: url(#linear-gradient-25);
      }

      .cls-26 {
        fill: url(#linear-gradient-32);
      }

      .cls-27 {
        fill: url(#linear-gradient-31);
      }

      .cls-28 {
        fill: url(#linear-gradient-33);
      }

      .cls-29 {
        fill: url(#linear-gradient-30);
      }

      .cls-30 {
        fill: url(#linear-gradient-15);
      }

      .cls-31 {
        fill: url(#linear-gradient-16);
      }

      .cls-32 {
        fill: url(#linear-gradient-17);
      }

      .cls-33 {
        fill: url(#linear-gradient-18);
      }

      .cls-34 {
        fill: url(#linear-gradient-35);
      }

      .cls-35 {
        fill: url(#linear-gradient-34);
      }

      .cls-36 {
        fill: url(#linear-gradient-36);
      }

      .cls-37 {
        fill: url(#linear-gradient-38);
      }

      .cls-38 {
        fill: url(#linear-gradient-27);
      }

      .cls-39 {
        fill: url(#linear-gradient-24);
      }

      .cls-40 {
        fill: url(#linear-gradient-26);
      }

      .cls-41 {
        fill: url(#linear-gradient-29);
      }

      .cls-42 {
        fill: url(#linear-gradient-37);
      }

      .cls-43 {
        fill: #b3b3b3;
      }

      .cls-44 {
        fill: #333;
      }
    </style>
    <linearGradient id="linear-gradient" x1="310.85" y1="413.65" x2="572.23" y2="413.65" gradientTransform="translate(429.77 900.44) rotate(-135)" gradientUnits="userSpaceOnUse">
      <stop offset="0" stop-color="#333"/>
      <stop offset=".31" stop-color="#282828"/>
      <stop offset=".51" stop-color="#3a3a3a"/>
      <stop offset=".71" stop-color="#282828"/>
      <stop offset="1" stop-color="#333"/>
    </linearGradient>
    <linearGradient id="linear-gradient-2" x1="312.68" y1="413.65" x2="570.4" y2="413.65" xlink:href="#linear-gradient"/>
    <linearGradient id="linear-gradient-3" x1="315.5" y1="413.65" x2="567.58" y2="413.65" xlink:href="#linear-gradient"/>
    <linearGradient id="linear-gradient-4" x1="317.5" y1="413.65" x2="565.58" y2="413.65" xlink:href="#linear-gradient"/>
    <linearGradient id="linear-gradient-5" x1="319.35" y1="413.64" x2="563.73" y2="413.64" xlink:href="#linear-gradient"/>
    <linearGradient id="linear-gradient-6" x1="321.41" y1="413.64" x2="561.67" y2="413.64" xlink:href="#linear-gradient"/>
    <linearGradient id="linear-gradient-7" x1="323.91" y1="413.64" x2="559.18" y2="413.64" xlink:href="#linear-gradient"/>
    <linearGradient id="linear-gradient-8" x1="325.43" y1="413.64" x2="557.66" y2="413.64" xlink:href="#linear-gradient"/>
    <linearGradient id="linear-gradient-9" x1="327.62" y1="413.64" x2="555.47" y2="413.64" xlink:href="#linear-gradient"/>
    <linearGradient id="linear-gradient-10" x1="330.32" y1="413.64" x2="552.77" y2="413.64" xlink:href="#linear-gradient"/>
    <linearGradient id="linear-gradient-11" x1="332.64" y1="413.63" x2="550.46" y2="413.63" xlink:href="#linear-gradient"/>
    <linearGradient id="linear-gradient-12" x1="335.01" y1="413.63" x2="548.09" y2="413.63" xlink:href="#linear-gradient"/>
    <linearGradient id="linear-gradient-13" x1="336.91" y1="413.63" x2="546.19" y2="413.63" xlink:href="#linear-gradient"/>
    <linearGradient id="linear-gradient-14" x1="338.98" y1="413.63" x2="544.12" y2="413.63" xlink:href="#linear-gradient"/>
    <linearGradient id="linear-gradient-15" x1="340.72" y1="413.63" x2="542.39" y2="413.63" xlink:href="#linear-gradient"/>
    <linearGradient id="linear-gradient-16" x1="343.11" y1="413.63" x2="540" y2="413.63" xlink:href="#linear-gradient"/>
    <linearGradient id="linear-gradient-17" x1="345.06" y1="413.63" x2="538.05" y2="413.63" xlink:href="#linear-gradient"/>
    <linearGradient id="linear-gradient-18" x1="346.69" y1="413.62" x2="536.42" y2="413.62" xlink:href="#linear-gradient"/>
    <linearGradient id="linear-gradient-19" x1="348.94" y1="413.62" x2="534.17" y2="413.62" xlink:href="#linear-gradient"/>
    <linearGradient id="linear-gradient-20" x1="351.05" y1="413.62" x2="532.07" y2="413.62" xlink:href="#linear-gradient"/>
    <linearGradient id="linear-gradient-21" x1="352.84" y1="413.62" x2="530.28" y2="413.62" xlink:href="#linear-gradient"/>
    <linearGradient id="linear-gradient-22" x1="354.78" y1="413.62" x2="528.35" y2="413.62" xlink:href="#linear-gradient"/>
    <linearGradient id="linear-gradient-23" x1="356.75" y1="413.62" x2="526.37" y2="413.62" xlink:href="#linear-gradient"/>
    <linearGradient id="linear-gradient-24" x1="358.1" y1="413.62" x2="525.03" y2="413.62" xlink:href="#linear-gradient"/>
    <linearGradient id="linear-gradient-25" x1="360.16" y1="413.61" x2="522.97" y2="413.61" xlink:href="#linear-gradient"/>
    <linearGradient id="linear-gradient-26" x1="362.33" y1="413.61" x2="520.8" y2="413.61" xlink:href="#linear-gradient"/>
    <linearGradient id="linear-gradient-27" x1="364.14" y1="413.61" x2="519" y2="413.61" xlink:href="#linear-gradient"/>
    <linearGradient id="linear-gradient-28" x1="366.28" y1="413.61" x2="516.86" y2="413.61" xlink:href="#linear-gradient"/>
    <linearGradient id="linear-gradient-29" x1="367.84" y1="413.61" x2="515.29" y2="413.61" xlink:href="#linear-gradient"/>
    <linearGradient id="linear-gradient-30" x1="369.81" y1="413.61" x2="513.33" y2="413.61" xlink:href="#linear-gradient"/>
    <linearGradient id="linear-gradient-31" x1="372" y1="413.6" x2="511.14" y2="413.6" xlink:href="#linear-gradient"/>
    <linearGradient id="linear-gradient-32" x1="373.31" y1="413.6" x2="509.83" y2="413.6" xlink:href="#linear-gradient"/>
    <linearGradient id="linear-gradient-33" x1="375.63" y1="413.6" x2="507.52" y2="413.6" xlink:href="#linear-gradient"/>
    <linearGradient id="linear-gradient-34" x1="377.97" y1="413.6" x2="505.19" y2="413.6" xlink:href="#linear-gradient"/>
    <linearGradient id="linear-gradient-35" x1="380.16" y1="413.6" x2="503" y2="413.6" xlink:href="#linear-gradient"/>
    <linearGradient id="linear-gradient-36" x1="381.92" y1="413.59" x2="501.24" y2="413.59" xlink:href="#linear-gradient"/>
    <linearGradient id="linear-gradient-37" x1="383.8" y1="413.59" x2="499.36" y2="413.59" xlink:href="#linear-gradient"/>
    <linearGradient id="linear-gradient-38" x1="385.67" y1="413.59" x2="497.49" y2="413.59" xlink:href="#linear-gradient"/>
  </defs>
  <rect class="cls-43" x="0" width="800" height="800"/>
  <path class="cls-1" d="M403.55,295.86c-.07-3.58,2.78-6.53,6.36-6.6,3.58-.07,6.53,2.78,6.6,6.36.07,3.58-2.78,6.53-6.35,6.6-3.58.07-6.54-2.78-6.6-6.36ZM410.1,299.61c2.13-.04,3.83-1.8,3.79-3.94-.04-2.13-1.8-3.83-3.94-3.79-2.13.04-3.83,1.8-3.79,3.94.04,2.13,1.8,3.83,3.94,3.79Z"/>
  <path class="cls-44" d="M274.94,298.3c-1.41-74.62,57.94-136.25,132.56-137.67,74.62-1.41,136.25,57.94,137.66,132.55,1.41,74.62-57.94,136.25-132.55,137.66-74.62,1.41-136.25-57.94-137.67-132.55ZM410.11,299.77c2.22-.04,3.99-1.88,3.95-4.1-.04-2.22-1.88-3.99-4.1-3.95-2.22.04-3.99,1.88-3.95,4.1.04,2.22,1.88,3.99,4.1,3.95Z"/>
  <path class="cls-12" d="M279.08,298.22c-1.37-72.33,56.16-132.07,128.49-133.44,72.33-1.37,132.07,56.16,133.44,128.49,1.37,72.33-56.16,132.07-128.49,133.44-72.33,1.37-132.07-56.16-133.44-128.49ZM410.11,299.77c2.22-.04,3.99-1.88,3.95-4.1-.04-2.22-1.88-3.99-4.1-3.95-2.22.04-3.99,1.88-3.95,4.1.04,2.22,1.88,3.99,4.1,3.95Z"/>
  <path class="cls-11" d="M279.38,298.21c-1.37-72.16,56.03-131.77,128.19-133.14,72.16-1.36,131.77,56.03,133.13,128.19,1.37,72.16-56.03,131.77-128.19,133.14-72.17,1.36-131.77-56.03-133.14-128.19ZM410.11,299.77c2.22-.04,3.99-1.88,3.95-4.1-.04-2.22-1.88-3.99-4.1-3.95-2.22.04-3.99,1.88-3.95,4.1.04,2.22,1.88,3.99,4.1,3.95Z"/>
  <path class="cls-12" d="M280.69,298.19c-1.35-71.44,55.47-130.45,126.91-131.8,71.44-1.35,130.45,55.47,131.8,126.91,1.35,71.44-55.47,130.45-126.91,131.8-71.44,1.35-130.45-55.47-131.81-126.91ZM410.11,299.77c2.22-.04,3.99-1.88,3.95-4.1-.04-2.22-1.88-3.99-4.1-3.95-2.22.04-3.99,1.88-3.95,4.1.04,2.22,1.88,3.99,4.1,3.95Z"/>
  <path class="cls-10" d="M281.21,298.18c-1.35-71.15,55.24-129.93,126.4-131.27,71.15-1.35,129.92,55.24,131.27,126.4,1.35,71.15-55.24,129.93-126.4,131.27-71.15,1.35-129.93-55.24-131.27-126.4ZM410.11,299.77c2.22-.04,3.99-1.88,3.95-4.1-.04-2.22-1.88-3.99-4.1-3.95-2.22.04-3.99,1.88-3.95,4.1.04,2.22,1.88,3.99,4.1,3.95Z"/>
  <path class="cls-12" d="M283.65,298.13c-1.32-69.81,54.2-127.47,124.01-128.79,69.81-1.32,127.47,54.2,128.79,124.01,1.32,69.81-54.2,127.47-124.01,128.79-69.81,1.32-127.47-54.2-128.79-124.01ZM410.11,299.77c2.22-.04,3.99-1.88,3.95-4.1-.04-2.22-1.88-3.99-4.1-3.95-2.22.04-3.99,1.88-3.95,4.1.04,2.22,1.88,3.99,4.1,3.95Z"/>
  <path class="cls-9" d="M284.03,298.12c-1.32-69.6,54.04-127.08,123.64-128.4,69.6-1.32,127.08,54.04,128.4,123.63,1.32,69.6-54.04,127.09-123.63,128.4-69.6,1.32-127.09-54.04-128.4-123.63ZM410.11,299.77c2.22-.04,3.99-1.88,3.95-4.1-.04-2.22-1.88-3.99-4.1-3.95-2.22.04-3.99,1.88-3.95,4.1.04,2.22,1.88,3.99,4.1,3.95Z"/>
  <path class="cls-12" d="M285.66,298.09c-1.3-68.7,53.34-125.44,122.04-126.74,68.7-1.3,125.44,53.34,126.74,122.04,1.3,68.7-53.34,125.44-122.03,126.74-68.7,1.3-125.45-53.34-126.75-122.04ZM410.11,299.77c2.22-.04,3.99-1.88,3.95-4.1-.04-2.22-1.88-3.99-4.1-3.95-2.22.04-3.99,1.88-3.95,4.1.04,2.22,1.88,3.99,4.1,3.95Z"/>
  <path class="cls-8" d="M286.03,298.09c-1.3-68.49,53.18-125.07,121.67-126.36,68.49-1.29,125.06,53.18,126.36,121.67,1.29,68.49-53.18,125.07-121.67,126.36-68.5,1.29-125.07-53.18-126.37-121.67ZM410.11,299.77c2.22-.04,3.99-1.88,3.95-4.1-.04-2.22-1.88-3.99-4.1-3.95-2.22.04-3.99,1.88-3.95,4.1.04,2.22,1.88,3.99,4.1,3.95Z"/>
  <path class="cls-12" d="M287.26,298.06c-1.28-67.81,52.65-123.82,120.46-125.1,67.81-1.28,123.82,52.65,125.1,120.46,1.28,67.81-52.65,123.82-120.46,125.1-67.82,1.28-123.83-52.65-125.11-120.46ZM410.11,299.77c2.22-.04,3.99-1.88,3.95-4.1-.04-2.22-1.88-3.99-4.1-3.95-2.22.04-3.99,1.88-3.95,4.1.04,2.22,1.88,3.99,4.1,3.95Z"/>
  <path class="cls-5" d="M287.87,298.05c-1.28-67.47,52.39-123.2,119.86-124.48,67.47-1.28,123.2,52.39,124.48,119.86,1.28,67.47-52.39,123.2-119.85,124.48-67.48,1.28-123.21-52.39-124.49-119.86ZM410.11,299.77c2.22-.04,3.99-1.88,3.95-4.1-.04-2.22-1.88-3.99-4.1-3.95-2.22.04-3.99,1.88-3.95,4.1.04,2.22,1.88,3.99,4.1,3.95Z"/>
  <path class="cls-12" d="M289.57,298.02c-1.26-66.53,51.66-121.49,118.2-122.75,66.53-1.26,121.48,51.66,122.74,118.19,1.26,66.54-51.66,121.49-118.18,122.75-66.54,1.26-121.5-51.66-122.76-118.19ZM410.11,299.77c2.22-.04,3.99-1.88,3.95-4.1-.04-2.22-1.88-3.99-4.1-3.95-2.22.04-3.99,1.88-3.95,4.1.04,2.22,1.88,3.99,4.1,3.95Z"/>
  <path class="cls-6" d="M289.93,298.01c-1.25-66.33,51.5-121.13,117.85-122.38,66.33-1.25,121.12,51.5,122.37,117.84,1.25,66.34-51.5,121.13-117.83,122.38-66.34,1.25-121.13-51.5-122.39-117.84ZM410.11,299.77c2.22-.04,3.99-1.88,3.95-4.1-.04-2.22-1.88-3.99-4.1-3.95-2.22.04-3.99,1.88-3.95,4.1.04,2.22,1.88,3.99,4.1,3.95Z"/>
  <path class="cls-12" d="M291.95,297.97c-1.23-65.21,50.63-119.08,115.86-120.32,65.21-1.23,119.07,50.64,120.31,115.85,1.23,65.22-50.63,119.08-115.84,120.32-65.23,1.23-119.09-50.63-120.33-115.85ZM410.11,299.77c2.22-.04,3.99-1.88,3.95-4.1-.04-2.22-1.88-3.99-4.1-3.95-2.22.04-3.99,1.88-3.95,4.1.04,2.22,1.88,3.99,4.1,3.95Z"/>
  <path class="cls-4" d="M292.43,297.96c-1.23-64.95,50.43-118.61,115.4-119.84,64.95-1.23,118.6,50.43,119.83,115.39,1.23,64.96-50.43,118.61-115.38,119.84-64.97,1.23-118.62-50.43-119.85-115.39ZM410.11,299.77c2.22-.04,3.99-1.88,3.95-4.1-.04-2.22-1.88-3.99-4.1-3.95-2.22.04-3.99,1.88-3.95,4.1.04,2.22,1.88,3.99,4.1,3.95Z"/>
  <path class="cls-12" d="M293.48,297.94c-1.22-64.37,49.98-117.54,114.36-118.76,64.36-1.22,117.53,49.98,118.75,114.35,1.22,64.37-49.98,117.55-114.34,118.76-64.38,1.22-117.56-49.98-118.77-114.35ZM410.11,299.77c2.22-.04,3.99-1.88,3.95-4.1-.04-2.22-1.88-3.99-4.1-3.95-2.22.04-3.99,1.88-3.95,4.1.04,2.22,1.88,3.99,4.1,3.95Z"/>
  <path class="cls-3" d="M293.94,297.94c-1.21-64.11,49.78-117.07,113.91-118.29,64.1-1.21,117.06,49.78,118.28,113.89,1.21,64.12-49.78,117.08-113.88,118.29-64.13,1.21-117.09-49.78-118.3-113.9ZM410.11,299.77c2.22-.04,3.99-1.88,3.95-4.1-.04-2.22-1.88-3.99-4.1-3.95-2.22.04-3.99,1.88-3.95,4.1.04,2.22,1.88,3.99,4.1,3.95Z"/>
  <path class="cls-12" d="M295.79,297.9c-1.19-63.09,48.99-115.21,112.1-116.41,63.08-1.19,115.2,48.99,116.39,112.09,1.19,63.1-48.99,115.22-112.07,116.41-63.11,1.19-115.23-48.99-116.42-112.09ZM410.11,299.77c2.22-.04,3.99-1.88,3.95-4.1-.04-2.22-1.88-3.99-4.1-3.95-2.22.04-3.99,1.88-3.95,4.1.04,2.22,1.88,3.99,4.1,3.95Z"/>
  <path class="cls-7" d="M296.13,297.9c-1.19-62.91,48.84-114.87,111.77-116.06,62.89-1.19,114.86,48.84,116.05,111.75,1.19,62.91-48.84,114.87-111.74,116.06-62.92,1.19-114.88-48.84-116.07-111.75ZM410.11,299.77c2.22-.04,3.99-1.88,3.95-4.1-.04-2.22-1.88-3.99-4.1-3.95-2.22.04-3.99,1.88-3.95,4.1.04,2.22,1.88,3.99,4.1,3.95Z"/>
  <path class="cls-12" d="M298.38,297.85c-1.17-61.66,47.88-112.59,109.55-113.76,61.65-1.17,112.58,47.88,113.74,109.54,1.17,61.67-47.88,112.6-109.52,113.76-61.68,1.17-112.61-47.88-113.78-109.54ZM410.11,299.77c2.22-.04,3.99-1.88,3.95-4.1-.04-2.22-1.88-3.99-4.1-3.95-2.22.04-3.99,1.88-3.95,4.1.04,2.22,1.88,3.99,4.1,3.95Z"/>
  <path class="cls-14" d="M298.83,297.84c-1.16-61.41,47.69-112.14,109.12-113.3,61.4-1.16,112.13,47.69,113.29,109.1,1.16,61.42-47.68,112.15-109.08,113.31-61.43,1.16-112.16-47.68-113.32-109.1ZM410.11,299.77c2.22-.04,3.99-1.88,3.95-4.1-.04-2.22-1.88-3.99-4.1-3.95-2.22.04-3.99,1.88-3.95,4.1.04,2.22,1.88,3.99,4.1,3.95Z"/>
  <path class="cls-12" d="M300.7,297.81c-1.14-60.38,46.88-110.25,107.28-111.39,60.36-1.14,110.23,46.88,111.38,107.26,1.14,60.38-46.88,110.26-107.24,111.4-60.4,1.14-110.27-46.88-111.42-107.26ZM410.11,299.77c2.22-.04,3.99-1.88,3.95-4.1-.04-2.22-1.88-3.99-4.1-3.95-2.22.04-3.99,1.88-3.95,4.1.04,2.22,1.88,3.99,4.1,3.95Z"/>
  <path class="cls-15" d="M301.14,297.8c-1.14-60.14,46.69-109.81,106.85-110.95,60.12-1.14,109.79,46.69,110.93,106.83,1.14,60.14-46.69,109.82-106.81,110.95-60.16,1.14-109.83-46.69-110.97-106.83ZM410.11,299.77c2.22-.04,3.99-1.88,3.95-4.1-.04-2.22-1.88-3.99-4.1-3.95-2.22.04-3.99,1.88-3.95,4.1.04,2.22,1.88,3.99,4.1,3.95Z"/>
  <path class="cls-12" d="M302.86,297.77c-1.12-59.18,45.95-108.07,105.16-109.19,59.16-1.12,108.05,45.95,109.17,105.13,1.12,59.19-45.95,108.07-105.11,109.19-59.21,1.12-108.09-45.95-109.21-105.14ZM410.11,299.77c2.22-.04,3.99-1.88,3.95-4.1-.04-2.22-1.88-3.99-4.1-3.95-2.22.04-3.99,1.88-3.95,4.1.04,2.22,1.88,3.99,4.1,3.95Z"/>
  <path class="cls-16" d="M303.5,297.76c-1.11-58.83,45.68-107.42,104.53-108.53,58.81-1.11,107.4,45.68,108.51,104.5,1.11,58.83-45.68,107.43-104.48,108.54-58.85,1.11-107.44-45.68-108.56-104.51ZM410.11,299.77c2.22-.04,3.99-1.88,3.95-4.1-.04-2.22-1.88-3.99-4.1-3.95-2.22.04-3.99,1.88-3.95,4.1.04,2.22,1.88,3.99,4.1,3.95Z"/>
  <path class="cls-12" d="M305.2,297.72c-1.09-57.89,44.95-105.71,102.87-106.81,57.87-1.09,105.69,44.95,106.79,102.85,1.1,57.9-44.95,105.72-102.82,106.81-57.92,1.1-105.74-44.95-106.84-102.85ZM410.11,299.77c2.22-.04,3.99-1.88,3.95-4.1-.04-2.22-1.88-3.99-4.1-3.95-2.22.04-3.99,1.88-3.95,4.1.04,2.22,1.88,3.99,4.1,3.95Z"/>
  <path class="cls-17" d="M305.4,297.72c-1.09-57.78,44.86-105.5,102.67-106.6,57.76-1.09,105.48,44.86,106.57,102.64,1.09,57.78-44.86,105.51-102.62,106.6-57.8,1.09-105.53-44.86-106.62-102.64ZM410.11,299.77c2.22-.04,3.99-1.88,3.95-4.1-.04-2.22-1.88-3.99-4.1-3.95-2.22.04-3.99,1.88-3.95,4.1.04,2.22,1.88,3.99,4.1,3.95Z"/>
  <path class="cls-12" d="M307.17,297.69c-1.07-56.8,44.11-103.72,100.94-104.8,56.78-1.07,103.7,44.11,104.78,100.91,1.07,56.81-44.11,103.73-100.88,104.8-56.83,1.07-103.75-44.1-104.83-100.91ZM410.11,299.77c2.22-.04,3.99-1.88,3.95-4.1-.04-2.22-1.88-3.99-4.1-3.95-2.22.04-3.99,1.88-3.95,4.1.04,2.22,1.88,3.99,4.1,3.95Z"/>
  <path class="cls-19" d="M307.47,297.68c-1.07-56.63,43.97-103.41,100.63-104.49,56.61-1.07,103.39,43.97,104.46,100.61,1.07,56.64-43.97,103.42-100.58,104.49-56.66,1.07-103.44-43.97-104.51-100.61ZM410.11,299.77c2.22-.04,3.99-1.88,3.95-4.1-.04-2.22-1.88-3.99-4.1-3.95-2.22.04-3.99,1.88-3.95,4.1.04,2.22,1.88,3.99,4.1,3.95Z"/>
  <path class="cls-12" d="M308.9,297.65c-1.06-55.85,43.36-101.97,99.24-103.03,55.82-1.06,101.95,43.36,103,99.21,1.06,55.85-43.36,101.98-99.18,103.04-55.88,1.06-102.01-43.36-103.06-99.21ZM410.11,299.77c2.22-.04,3.99-1.88,3.95-4.1-.04-2.22-1.88-3.99-4.1-3.95-2.22.04-3.99,1.88-3.95,4.1.04,2.22,1.88,3.99,4.1,3.95Z"/>
  <path class="cls-30" d="M309.2,297.65c-1.05-55.68,43.23-101.67,98.94-102.72,55.65-1.05,101.64,43.23,102.7,98.91,1.05,55.68-43.23,101.67-98.88,102.73-55.71,1.05-101.7-43.23-102.75-98.91ZM410.11,299.77c2.22-.04,3.99-1.88,3.95-4.1-.04-2.22-1.88-3.99-4.1-3.95-2.22.04-3.99,1.88-3.95,4.1.04,2.22,1.88,3.99,4.1,3.95Z"/>
  <path class="cls-12" d="M311.1,297.61c-1.03-54.63,42.42-99.75,97.08-100.79,54.6-1.03,99.73,42.42,100.76,97.05,1.03,54.64-42.42,99.76-97.02,100.79-54.66,1.03-99.79-42.42-100.82-97.05ZM410.11,299.77c2.22-.04,3.99-1.88,3.95-4.1-.04-2.22-1.88-3.99-4.1-3.95-2.22.04-3.99,1.88-3.95,4.1.04,2.22,1.88,3.99,4.1,3.95Z"/>
  <path class="cls-31" d="M311.59,297.6c-1.03-54.36,42.21-99.26,96.6-100.28,54.33-1.03,99.23,42.21,100.26,96.56,1.03,54.36-42.21,99.26-96.53,100.29-54.39,1.03-99.29-42.2-100.32-96.57ZM410.11,299.77c2.22-.04,3.99-1.88,3.95-4.1-.04-2.22-1.88-3.99-4.1-3.95-2.22.04-3.99,1.88-3.95,4.1.04,2.22,1.88,3.99,4.1,3.95Z"/>
  <path class="cls-12" d="M313.25,297.57c-1.01-53.44,41.49-97.58,94.97-98.59,53.41-1.01,97.55,41.49,98.56,94.93,1.01,53.45-41.49,97.59-94.9,98.6-53.48,1.01-97.62-41.49-98.63-94.94ZM410.11,299.77c2.22-.04,3.99-1.88,3.95-4.1-.04-2.22-1.88-3.99-4.1-3.95-2.22.04-3.99,1.88-3.95,4.1.04,2.22,1.88,3.99,4.1,3.95Z"/>
  <path class="cls-32" d="M313.54,297.57c-1.01-53.28,41.37-97.29,94.69-98.3,53.25-1.01,97.26,41.37,98.27,94.65,1.01,53.29-41.37,97.3-94.62,98.3-53.31,1.01-97.33-41.37-98.33-94.66ZM410.11,299.77c2.22-.04,3.99-1.88,3.95-4.1-.04-2.22-1.88-3.99-4.1-3.95-2.22.04-3.99,1.88-3.95,4.1.04,2.22,1.88,3.99,4.1,3.95Z"/>
  <path class="cls-12" d="M314.78,297.54c-.99-52.59,40.84-96.03,93.46-97.03,52.56-.99,96,40.84,97,93.43.99,52.6-40.83,96.04-93.39,97.03-52.63,1-96.07-40.83-97.07-93.43ZM410.11,299.77c2.22-.04,3.99-1.88,3.95-4.1-.04-2.22-1.88-3.99-4.1-3.95-2.22.04-3.99,1.88-3.95,4.1.04,2.22,1.88,3.99,4.1,3.95Z"/>
  <path class="cls-33" d="M315.16,297.53c-.99-52.38,40.67-95.65,93.09-96.64,52.35-.99,95.62,40.67,96.61,93.05.99,52.39-40.67,95.66-93.02,96.65-52.42.99-95.69-40.67-96.68-93.06ZM410.11,299.77c2.22-.04,3.99-1.88,3.95-4.1-.04-2.22-1.88-3.99-4.1-3.95-2.22.04-3.99,1.88-3.95,4.1.04,2.22,1.88,3.99,4.1,3.95Z"/>
  <path class="cls-12" d="M317.13,297.5c-.97-51.29,39.83-93.66,91.16-94.63,51.26-.97,93.63,39.83,94.6,91.12.97,51.3-39.83,93.67-91.08,94.64-51.33.97-93.7-39.82-94.67-91.12ZM410.11,299.77c2.22-.04,3.99-1.88,3.95-4.1-.04-2.22-1.88-3.99-4.1-3.95-2.22.04-3.99,1.88-3.95,4.1.04,2.22,1.88,3.99,4.1,3.95Z"/>
  <path class="cls-18" d="M317.41,297.49c-.97-51.14,39.71-93.38,90.89-94.35,51.1-.97,93.35,39.71,94.31,90.84.97,51.15-39.71,93.39-90.81,94.35-51.18.97-93.42-39.71-94.39-90.85ZM410.11,299.77c2.22-.04,3.99-1.88,3.95-4.1-.04-2.22-1.88-3.99-4.1-3.95-2.22.04-3.99,1.88-3.95,4.1.04,2.22,1.88,3.99,4.1,3.95Z"/>
  <path class="cls-12" d="M319.15,297.46c-.95-50.17,38.96-91.62,89.18-92.57,50.14-.95,91.58,38.96,92.53,89.14.95,50.18-38.96,91.63-89.1,92.58-50.22.95-91.66-38.96-92.61-89.14ZM410.11,299.77c2.22-.04,3.99-1.88,3.95-4.1-.04-2.22-1.88-3.99-4.1-3.95-2.22.04-3.99,1.88-3.95,4.1.04,2.22,1.88,3.99,4.1,3.95Z"/>
  <path class="cls-21" d="M319.52,297.45c-.94-49.97,38.8-91.26,88.82-92.2,49.94-.94,91.22,38.81,92.16,88.78.94,49.98-38.8,91.26-88.74,92.21-50.02.95-91.3-38.8-92.24-88.78ZM410.11,299.77c2.22-.04,3.99-1.88,3.95-4.1-.04-2.22-1.88-3.99-4.1-3.95-2.22.04-3.99,1.88-3.95,4.1.04,2.22,1.88,3.99,4.1,3.95Z"/>
  <path class="cls-12" d="M320.86,297.43c-.93-49.23,38.23-89.9,87.5-90.83,49.19-.93,89.86,38.23,90.79,87.46.93,49.24-38.23,89.9-87.42,90.83-49.27.93-89.94-38.22-90.87-87.46ZM410.11,299.77c2.22-.04,3.99-1.88,3.95-4.1-.04-2.22-1.88-3.99-4.1-3.95-2.22.04-3.99,1.88-3.95,4.1.04,2.22,1.88,3.99,4.1,3.95Z"/>
  <path class="cls-20" d="M321.31,297.42c-.93-48.98,38.04-89.45,87.06-90.37,48.95-.93,89.41,38.04,90.34,87.02.93,48.99-38.03,89.45-86.98,90.38-49.03.93-89.49-38.03-90.42-87.03ZM410.11,299.77c2.22-.04,3.99-1.88,3.95-4.1-.04-2.22-1.88-3.99-4.1-3.95-2.22.04-3.99,1.88-3.95,4.1.04,2.22,1.88,3.99,4.1,3.95Z"/>
  <path class="cls-12" d="M322.63,297.39c-.91-48.25,37.47-88.11,85.77-89.03,48.21-.91,88.07,37.47,88.99,85.72.91,48.26-37.47,88.12-85.68,89.03-48.3.91-88.16-37.47-89.07-85.73ZM410.11,299.77c2.22-.04,3.99-1.88,3.95-4.1-.04-2.22-1.88-3.99-4.1-3.95-2.22.04-3.99,1.88-3.95,4.1.04,2.22,1.88,3.99,4.1,3.95Z"/>
  <path class="cls-22" d="M323.24,297.38c-.91-47.92,37.21-87.5,85.17-88.41,47.88-.91,87.46,37.21,88.36,85.12.91,47.93-37.21,87.51-85.08,88.41-47.96.91-87.55-37.21-88.45-85.13ZM410.11,299.77c2.22-.04,3.99-1.88,3.95-4.1-.04-2.22-1.88-3.99-4.1-3.95-2.22.04-3.99,1.88-3.95,4.1.04,2.22,1.88,3.99,4.1,3.95Z"/>
  <path class="cls-12" d="M324.87,297.35c-.89-47.01,36.51-85.85,83.57-86.74,46.97-.89,85.81,36.51,86.7,83.52.89,47.02-36.5,85.86-83.48,86.75-47.06.89-85.9-36.51-86.79-83.53ZM410.11,299.77c2.22-.04,3.99-1.88,3.95-4.1-.04-2.22-1.88-3.99-4.1-3.95-2.22.04-3.99,1.88-3.95,4.1.04,2.22,1.88,3.99,4.1,3.95Z"/>
  <path class="cls-23" d="M325.21,297.34c-.89-46.83,36.36-85.51,83.24-86.39,46.78-.88,85.47,36.36,86.35,83.19.89,46.84-36.36,85.52-83.14,86.4-46.88.89-85.56-36.36-86.44-83.2ZM410.11,299.77c2.22-.04,3.99-1.88,3.95-4.1-.04-2.22-1.88-3.99-4.1-3.95-2.22.04-3.99,1.88-3.95,4.1.04,2.22,1.88,3.99,4.1,3.95Z"/>
  <path class="cls-12" d="M326.3,297.32c-.87-46.22,35.89-84.4,82.16-85.28,46.18-.87,84.36,35.89,85.23,82.11.87,46.23-35.89,84.41-82.07,85.29-46.27.88-84.45-35.89-85.33-82.12ZM410.11,299.77c2.22-.04,3.99-1.88,3.95-4.1-.04-2.22-1.88-3.99-4.1-3.95-2.22.04-3.99,1.88-3.95,4.1.04,2.22,1.88,3.99,4.1,3.95Z"/>
  <path class="cls-39" d="M326.55,297.32c-.87-46.08,35.78-84.15,81.92-85.02,46.04-.87,84.11,35.78,84.98,81.87.87,46.09-35.78,84.16-81.82,85.03-46.13.87-84.2-35.78-85.07-81.87ZM410.11,299.77c2.22-.04,3.99-1.88,3.95-4.1-.04-2.22-1.88-3.99-4.1-3.95-2.22.04-3.99,1.88-3.95,4.1.04,2.22,1.88,3.99,4.1,3.95Z"/>
  <path class="cls-12" d="M328.2,297.29c-.85-45.17,35.07-82.48,80.3-83.34,45.13-.85,82.44,35.08,83.29,80.24.85,45.18-35.07,82.49-80.2,83.35-45.22.85-82.54-35.07-83.39-80.25ZM410.11,299.77c2.22-.04,3.99-1.88,3.95-4.1-.04-2.22-1.88-3.99-4.1-3.95-2.22.04-3.99,1.88-3.95,4.1.04,2.22,1.88,3.99,4.1,3.95Z"/>
  <path class="cls-25" d="M328.61,297.28c-.85-44.94,34.9-82.07,79.9-82.92,44.9-.85,82.03,34.9,82.88,79.84.85,44.95-34.9,82.08-79.8,82.93-45,.85-82.13-34.9-82.98-79.85ZM410.11,299.77c2.22-.04,3.99-1.88,3.95-4.1-.04-2.22-1.88-3.99-4.1-3.95-2.22.04-3.99,1.88-3.95,4.1.04,2.22,1.88,3.99,4.1,3.95Z"/>
  <path class="cls-12" d="M330.46,297.25c-.83-43.92,34.11-80.2,78.08-81.04,43.87-.83,80.16,34.11,80.99,78.03.83,43.93-34.11,80.22-77.98,81.04-43.98.83-80.26-34.1-81.09-78.04ZM410.11,299.77c2.22-.04,3.99-1.88,3.95-4.1-.04-2.22-1.88-3.99-4.1-3.95-2.22.04-3.99,1.88-3.95,4.1.04,2.22,1.88,3.99,4.1,3.95Z"/>
  <path class="cls-40" d="M330.78,297.24c-.83-43.74,33.97-79.88,77.77-80.71,43.7-.83,79.84,33.97,80.66,77.72.83,43.76-33.97,79.89-77.67,80.72-43.8.83-79.94-33.97-80.77-77.72ZM410.11,299.77c2.22-.04,3.99-1.88,3.95-4.1-.04-2.22-1.88-3.99-4.1-3.95-2.22.04-3.99,1.88-3.95,4.1.04,2.22,1.88,3.99,4.1,3.95Z"/>
  <path class="cls-12" d="M332.19,297.21c-.81-42.96,33.36-78.46,76.39-79.27,42.92-.81,78.41,33.36,79.22,76.33.81,42.98-33.36,78.47-76.28,79.28-43.02.81-78.52-33.36-79.33-76.34ZM410.11,299.77c2.22-.04,3.99-1.88,3.95-4.1-.04-2.22-1.88-3.99-4.1-3.95-2.22.04-3.99,1.88-3.95,4.1.04,2.22,1.88,3.99,4.1,3.95Z"/>
  <path class="cls-38" d="M332.58,297.21c-.81-42.75,33.2-78.07,76.01-78.88,42.7-.81,78.02,33.2,78.83,75.95.81,42.76-33.2,78.08-75.9,78.88-42.81.81-78.13-33.2-78.93-75.96ZM410.11,299.77c2.22-.04,3.99-1.88,3.95-4.1-.04-2.22-1.88-3.99-4.1-3.95-2.22.04-3.99,1.88-3.95,4.1.04,2.22,1.88,3.99,4.1,3.95Z"/>
  <path class="cls-12" d="M334.11,297.18c-.79-41.9,32.54-76.52,74.5-77.31,41.85-.79,76.47,32.54,77.26,74.44.79,41.91-32.54,76.53-74.39,77.32-41.96.79-76.58-32.54-77.37-74.45ZM410.11,299.77c2.22-.04,3.99-1.88,3.95-4.1-.04-2.22-1.88-3.99-4.1-3.95-2.22.04-3.99,1.88-3.95,4.1.04,2.22,1.88,3.99,4.1,3.95Z"/>
  <path class="cls-24" d="M334.71,297.17c-.79-41.57,32.28-75.91,73.91-76.7,41.52-.79,75.86,32.28,76.64,73.85.79,41.58-32.28,75.92-73.8,76.71-41.63.79-75.97-32.28-76.76-73.86ZM410.11,299.77c2.22-.04,3.99-1.88,3.95-4.1-.04-2.22-1.88-3.99-4.1-3.95-2.22.04-3.99,1.88-3.95,4.1.04,2.22,1.88,3.99,4.1,3.95Z"/>
  <path class="cls-12" d="M335.98,297.14c-.77-40.87,31.73-74.63,72.67-75.4,40.81-.77,74.57,31.74,75.35,72.6.77,40.88-31.73,74.64-72.55,75.41-40.93.77-74.69-31.73-75.46-72.61ZM410.11,299.77c2.22-.04,3.99-1.88,3.95-4.1-.04-2.22-1.88-3.99-4.1-3.95-2.22.04-3.99,1.88-3.95,4.1.04,2.22,1.88,3.99,4.1,3.95Z"/>
  <path class="cls-41" d="M336.28,297.14c-.77-40.7,31.61-74.33,72.38-75.1,40.65-.77,74.28,31.61,75.05,72.31.77,40.72-31.61,74.34-72.26,75.11-40.77.77-74.39-31.61-75.16-72.32ZM410.11,299.77c2.22-.04,3.99-1.88,3.95-4.1-.04-2.22-1.88-3.99-4.1-3.95-2.22.04-3.99,1.88-3.95,4.1.04,2.22,1.88,3.99,4.1,3.95Z"/>
  <path class="cls-12" d="M337.88,297.11c-.75-39.82,30.92-72.71,70.8-73.47,39.76-.75,72.66,30.92,73.41,70.74.75,39.83-30.92,72.72-70.68,73.48-39.88.75-72.78-30.92-73.53-70.75ZM410.11,299.77c2.22-.04,3.99-1.88,3.95-4.1-.04-2.22-1.88-3.99-4.1-3.95-2.22.04-3.99,1.88-3.95,4.1.04,2.22,1.88,3.99,4.1,3.95Z"/>
  <path class="cls-29" d="M338.24,297.1c-.75-39.62,30.77-72.35,70.45-73.1,39.56-.75,72.29,30.77,73.04,70.39.75,39.63-30.77,72.36-70.33,73.11-39.69.75-72.42-30.76-73.16-70.4ZM410.11,299.77c2.22-.04,3.99-1.88,3.95-4.1-.04-2.22-1.88-3.99-4.1-3.95-2.22.04-3.99,1.88-3.95,4.1.04,2.22,1.88,3.99,4.1,3.95Z"/>
  <path class="cls-12" d="M340.01,297.07c-.73-38.64,30.01-70.56,68.71-71.29,38.58-.73,70.5,30.01,71.23,68.65.73,38.65-30,70.57-68.59,71.3-38.71.73-70.63-30.01-71.36-68.66ZM410.11,299.77c2.22-.04,3.99-1.88,3.95-4.1-.04-2.22-1.88-3.99-4.1-3.95-2.22.04-3.99,1.88-3.95,4.1.04,2.22,1.88,3.99,4.1,3.95Z"/>
  <path class="cls-27" d="M340.43,297.06c-.73-38.41,29.83-70.14,68.3-70.87,38.35-.72,70.08,29.83,70.81,68.24.73,38.42-29.82,70.15-68.18,70.88-38.48.73-70.21-29.82-70.94-68.25ZM410.11,299.77c2.22-.04,3.99-1.88,3.95-4.1-.04-2.22-1.88-3.99-4.1-3.95-2.22.04-3.99,1.88-3.95,4.1.04,2.22,1.88,3.99,4.1,3.95Z"/>
  <path class="cls-12" d="M341.4,297.04c-.72-37.87,29.41-69.16,67.36-69.88,37.82-.71,69.1,29.41,69.82,67.29.72,37.89-29.41,69.18-67.23,69.89-37.95.72-69.23-29.41-69.95-67.3ZM410.11,299.77c2.22-.04,3.99-1.88,3.95-4.1-.04-2.22-1.88-3.99-4.1-3.95-2.22.04-3.99,1.88-3.95,4.1.04,2.22,1.88,3.99,4.1,3.95Z"/>
  <path class="cls-26" d="M341.74,297.03c-.71-37.68,29.26-68.82,67.02-69.53,37.63-.71,68.76,29.27,69.47,66.95.71,37.7-29.26,68.83-66.89,69.54-37.76.72-68.89-29.26-69.6-66.96ZM410.11,299.77c2.22-.04,3.99-1.88,3.95-4.1-.04-2.22-1.88-3.99-4.1-3.95-2.22.04-3.99,1.88-3.95,4.1.04,2.22,1.88,3.99,4.1,3.95Z"/>
  <path class="cls-12" d="M343.62,297c-.69-36.64,28.46-66.92,65.17-67.61,36.58-.69,66.86,28.46,67.55,65.1.69,36.66-28.45,66.93-65.04,67.62-36.72.7-66.99-28.46-67.68-65.11ZM410.11,299.77c2.22-.04,3.99-1.88,3.95-4.1-.04-2.22-1.88-3.99-4.1-3.95-2.22.04-3.99,1.88-3.95,4.1.04,2.22,1.88,3.99,4.1,3.95Z"/>
  <path class="cls-28" d="M344.04,296.99c-.69-36.4,28.27-66.48,64.77-67.17,36.33-.69,66.41,28.27,67.1,64.68.69,36.42-28.27,66.5-64.6,67.19-36.49.69-66.57-28.27-67.26-64.69ZM410.11,299.77c2.22-.04,3.99-1.88,3.95-4.1-.04-2.22-1.88-3.99-4.1-3.95-2.22.04-3.99,1.88-3.95,4.1.04,2.22,1.88,3.99,4.1,3.95Z"/>
  <path class="cls-12" d="M345.73,296.95c-.67-35.47,27.55-64.77,63.11-65.44,35.4-.67,64.7,27.55,65.37,63.02.67,35.49-27.54,64.79-62.94,65.46-35.56.67-64.86-27.54-65.54-63.03ZM410.11,299.77c2.22-.04,3.99-1.88,3.95-4.1-.04-2.22-1.88-3.99-4.1-3.95-2.22.04-3.99,1.88-3.95,4.1.04,2.22,1.88,3.99,4.1,3.95Z"/>
  <path class="cls-35" d="M346.37,296.94c-.66-35.11,27.27-64.13,62.48-64.79,35.04-.66,64.05,27.27,64.72,62.39.66,35.13-27.27,64.15-62.31,64.81-35.21.67-64.22-27.27-64.89-62.41ZM410.11,299.77c2.22-.04,3.99-1.88,3.95-4.1-.04-2.22-1.88-3.99-4.1-3.95-2.22.04-3.99,1.88-3.95,4.1.04,2.22,1.88,3.99,4.1,3.95Z"/>
  <path class="cls-12" d="M348.19,296.91c-.65-34.11,26.49-62.29,60.7-62.94,34.04-.64,62.22,26.49,62.86,60.6.65,34.13-26.49,62.31-60.52,62.96-34.21.65-62.39-26.49-63.03-60.62ZM410.11,299.77c2.22-.04,3.99-1.88,3.95-4.1-.04-2.22-1.88-3.99-4.1-3.95-2.22.04-3.99,1.88-3.95,4.1.04,2.22,1.88,3.99,4.1,3.95Z"/>
  <path class="cls-34" d="M348.56,296.9c-.64-33.91,26.33-61.92,60.34-62.56,33.83-.64,61.84,26.33,62.48,60.24.64,33.92-26.33,61.94-60.16,62.58-34,.64-62.02-26.33-62.66-60.26ZM410.11,299.77c2.22-.04,3.99-1.88,3.95-4.1-.04-2.22-1.88-3.99-4.1-3.95-2.22.04-3.99,1.88-3.95,4.1.04,2.22,1.88,3.99,4.1,3.95Z"/>
  <path class="cls-12" d="M349.96,296.87c-.63-33.13,25.73-60.51,58.97-61.14,33.05-.63,60.43,25.73,61.05,58.87.63,33.15-25.73,60.53-58.78,61.15-33.23.63-60.61-25.73-61.24-58.89ZM410.11,299.77c2.22-.04,3.99-1.88,3.95-4.1-.04-2.22-1.88-3.99-4.1-3.95-2.22.04-3.99,1.88-3.95,4.1.04,2.22,1.88,3.99,4.1,3.95Z"/>
  <path class="cls-36" d="M350.32,296.87c-.62-32.93,25.58-60.15,58.61-60.77,32.85-.62,60.07,25.58,60.69,58.52.62,32.96-25.58,60.17-58.43,60.79-33.04.62-60.25-25.58-60.87-58.53ZM410.11,299.77c2.22-.04,3.99-1.88,3.95-4.1-.04-2.22-1.88-3.99-4.1-3.95-2.22.04-3.99,1.88-3.95,4.1.04,2.22,1.88,3.99,4.1,3.95Z"/>
  <path class="cls-12" d="M351.79,296.84c-.61-32.12,24.95-58.66,57.17-59.27,32.04-.61,58.58,24.95,59.19,57.07.61,32.14-24.95,58.68-56.98,59.29-32.22.61-58.76-24.95-59.37-57.09ZM410.11,299.77c2.22-.04,3.99-1.88,3.95-4.1-.04-2.22-1.88-3.99-4.1-3.95-2.22.04-3.99,1.88-3.95,4.1.04,2.22,1.88,3.99,4.1,3.95Z"/>
  <path class="cls-42" d="M352.2,296.83c-.6-31.9,24.77-58.25,56.77-58.86,31.81-.6,58.17,24.77,58.77,56.67.6,31.92-24.77,58.27-56.59,58.88-32,.6-58.35-24.77-58.96-56.69ZM410.11,299.77c2.22-.04,3.99-1.88,3.95-4.1-.04-2.22-1.88-3.99-4.1-3.95-2.22.04-3.99,1.88-3.95,4.1.04,2.22,1.88,3.99,4.1,3.95Z"/>
  <path class="cls-12" d="M353.73,296.8c-.59-31.04,24.11-56.7,55.26-57.29,30.96-.59,56.61,24.12,57.2,55.16.59,31.07-24.11,56.72-55.07,57.31-31.15.59-56.8-24.11-57.39-55.18ZM410.11,299.77c2.22-.04,3.99-1.88,3.95-4.1-.04-2.22-1.88-3.99-4.1-3.95-2.22.04-3.99,1.88-3.95,4.1.04,2.22,1.88,3.99,4.1,3.95Z"/>
  <path class="cls-37" d="M354.07,296.8c-.58-30.86,23.97-56.36,54.93-56.94,30.78-.58,56.27,23.97,56.86,54.83.58,30.88-23.97,56.38-54.74,56.96-30.97.58-56.46-23.97-57.05-54.85ZM410.11,299.77c2.22-.04,3.99-1.88,3.95-4.1-.04-2.22-1.88-3.99-4.1-3.95-2.22.04-3.99,1.88-3.95,4.1.04,2.22,1.88,3.99,4.1,3.95Z"/>
  <path class="cls-44" d="M355.65,296.77c-.57-30.03,23.31-54.83,53.35-55.4,30.02-.57,54.82,23.31,55.39,53.34.57,30.03-23.31,54.83-53.33,55.4-30.04.57-54.84-23.31-55.41-53.34ZM410.1,299.69c2.18-.04,3.91-1.84,3.87-4.02-.04-2.18-1.84-3.91-4.02-3.87-2.18.04-3.91,1.84-3.87,4.02.04,2.18,1.84,3.91,4.02,3.87Z"/>
  <path class="cls-13" d="M365.35,296.59c-.47-24.68,19.16-45.06,43.84-45.52,24.67-.47,45.05,19.16,45.52,43.83.47,24.68-19.16,45.06-43.83,45.53-24.68.47-45.07-19.16-45.53-43.83ZM410.11,300.01c2.36-.04,4.23-1.99,4.19-4.35-.05-2.36-1.99-4.23-4.35-4.19-2.36.04-4.23,1.99-4.19,4.35.05,2.36,1.99,4.23,4.35,4.19Z"/>
  <path class="cls-13" d="M374.07,295.73c0,.23,0,.46,0,.69.38,19.82,16.81,35.65,36.64,35.27,19.45-.37,35.27-16.49,35.27-35.94,0-.23,0-.46,0-.69-.18-9.6-4.09-18.56-11.01-25.22-6.92-6.66-16.02-10.23-25.62-10.05-19.46.37-35.29,16.49-35.29,35.94h0Z"/>
  <path class="cls-2" d="M682.7,567.18c-8.77-.77-17.61-1.5-26.45-2.21v-5.46c4.13.24,8.27.48,12.41.73.25.01.49.02.74.02,3.13,0,6.16-1.19,8.45-3.35,2.47-2.33,3.88-5.58,3.88-8.97v-12.02s0,0,0-.01v-16.59s0-10.45,0-10.45c0-6.59-5.19-12.02-11.77-12.31-4.52-.2-9.1-.4-13.7-.6v-4.39c7.78.16,15.52.32,23.15.49.09,0,.18,0,.27,0,3.22,0,6.31-1.26,8.62-3.51,2.37-2.32,3.71-5.5,3.71-8.81v-12.03s0,0,0,0v-23.69s0-11.84,0-11.84c0-6.8-5.51-12.32-12.31-12.33-21.99-.03-43.97-.05-65.96-.07,0-.07.02-.13.02-.2v-22.63c0-6.81-5.52-12.33-12.33-12.33h-13.66v-81.37c0-6.81-5.52-12.33-12.33-12.33h-26.16c-1.04,0-2.04.17-3.01.41-.97-.24-1.96-.41-3.01-.41h-27.24c-5.66,0-10.59,3.85-11.96,9.34l-.41,1.66-.43-1.7c-1.39-5.47-6.31-9.3-11.95-9.3h-32.17c-1.05,0-2.08.14-3.07.39-.95-.23-1.93-.39-2.95-.39h-24.04c-3.35,0-6.55,1.36-8.87,3.77-.27.28-.52.57-.76.87-2.29-2.87-5.8-4.64-9.64-4.64h-36.07c-1.84,0-3.56.43-5.13,1.15-1.57-.72-3.29-1.15-5.13-1.15h-26.17c-1.17,0-2.28.22-3.36.52-1.07-.31-2.19-.52-3.36-.52h-26.89c-6.06,0-11.22,4.4-12.17,10.38l-2.72,17.01-2.83-17.08c-.99-5.95-6.13-10.31-12.16-10.31h-30.4c-3.75,0-7.29,1.7-9.63,4.63-2.34,2.93-3.22,6.76-2.39,10.42l25.75,113.73c-5.6,0-11.19,0-16.79,0-6.8,0-12.31,5.52-12.32,12.32v5.28c-11.2-13.02-28.11-19.62-50.68-19.68h-.47c-24.45,0-42.85,9.6-54.69,28.55-10.85,17.35-16.12,42.68-16.11,77.44,0,2.04.02,4.04.06,6.01-.04,1.98-.06,3.98-.06,6.02,0,32.34,4.77,56.14,14.56,72.74,10.72,18.17,27.89,27.77,49.64,27.77,2.53,0,5.17-.13,7.85-.38,14.69-1.31,30.75-5.79,43.41-17.01h6.74c.54,2.35,1.75,4.52,3.53,6.2,2.29,2.16,5.32,3.36,8.45,3.36.24,0,.49,0,.73-.02,13.57-.81,27.35-1.53,40.96-2.13,4.84-.22,8.91-3.21,10.73-7.4h11.5c.56.95,1.2,1.86,2.01,2.65,2.3,2.23,5.38,3.47,8.57,3.47.13,0,.27,0,.4,0,13.7-.45,27.58-.8,41.26-1.05,1.37-.02,2.66-.32,3.89-.76,1.13.34,2.32.54,3.53.54.05,0,.11,0,.16,0,12.34-.16,24.87-.24,37.24-.24h4.58s.01,0,.02,0c3.83,0,7.29-1.78,9.57-4.59h28.08c2.22,3.02,5.73,4.99,9.69,5.07,16.21.3,32.6.74,48.74,1.31.15,0,.29,0,.44,0,1.04,0,2.06-.14,3.05-.4,1.46.7,3.07,1.13,4.78,1.2,13.61.59,27.39,1.28,40.96,2.06.24.01.48.02.71.02,3.14,0,6.17-1.2,8.46-3.36,1.71-1.61,2.86-3.68,3.43-5.91h14.78c0,6.45,4.98,11.8,11.41,12.28,30.26,2.26,60.66,5.05,90.36,8.29.45.05.89.07,1.34.07,3.02,0,5.96-1.11,8.23-3.15,2.61-2.34,4.1-5.67,4.1-9.18v-47.61c0-6.39-4.88-11.72-11.24-12.28Z"/>
  <g>
    <path class="cls-43" d="M243.39,303.25h30.4l14.85,89.63h.71l14.32-89.63h26.87l-26.52,116.33h-34.3l-26.34-116.33Z"/>
    <path class="cls-43" d="M337.27,303.25h26.17v116.33h-26.17v-116.33Z"/>
    <path class="cls-43" d="M373.7,303.25h36.07l21.74,73.37h.18l-2.65-73.37h24.04v116.33h-29.17l-28.29-86.45h-.18l2.29,86.45h-24.04v-116.33Z"/>
    <path class="cls-43" d="M488.09,377.85l-28.99-74.6h32.17l12.2,48.09h.53l12.02-48.09h27.22l-28.99,74.6v41.72h-26.16v-41.72Z"/>
    <path class="cls-43" d="M549.27,303.25h26.16v93.7h25.99v22.63h-52.15v-116.33Z"/>
  </g>
  <g>
    <path class="cls-43" d="M118.38,523.6c0-64.43,18.62-93.87,58.92-93.66,37.52.1,54.74,20.08,54.71,63.38,0,5-.29,12.63-.57,17.64-11.67.36-23.34.75-35.01,1.18.28-6.41.28-12.02.28-16.02.01-22.93-5.26-31.93-16.38-31.76-13.89.2-20.01,14.7-20.02,57.1-.01,41.59,6.09,56.3,20.81,55.23,10.28-.73,15.84-9.08,15.85-32.02,0-3.73-.27-9.06-.55-12.51,11.76-.54,23.52-1.03,35.28-1.48.28,3.15.55,8.13.55,13.13-.02,40.98-17.55,64.27-55.31,67.65-39.43,3.73-58.56-24.47-58.56-87.85Z"/>
    <path class="cls-43" d="M240.34,432.04c18.53-.01,37.06-.02,55.59-.03,41.4.01,60.3,15.53,60.29,49.36,0,22.91-6.68,35.15-24.2,40.25,0,.09,0,.17,0,.26,17.24,3.33,24.18,13.46,24.18,29.23,0,16.12,0,32.24-.01,48.36-13.81.25-27.63.6-41.44,1.06,0-15.79.01-31.59.02-47.38,0-11.01-5.56-15.77-17.79-15.48-5.19.13-10.38.26-15.57.41-.01,21.25-.02,42.49-.03,63.74-13.72.61-27.43,1.33-41.14,2.14.03-57.3.07-114.61.1-171.91ZM295.88,513.51c13.62-.27,20.02-7.52,20.03-24.93,0-17.66-6.38-23.77-20.56-23.66-4.63.04-9.26.08-13.9.12,0,16.26-.02,32.51-.03,48.77,4.82-.11,9.64-.2,14.46-.3Z"/>
    <path class="cls-43" d="M447.82,566.81c-12.05-.16-24.1-.26-36.15-.29-1.95,10.83-3.89,21.65-5.84,32.48-14-.02-28,.06-42,.24,13.92-55.93,27.82-111.58,41.72-167.25,18.16,0,36.31,0,54.47,0,14.1,55.87,28.21,112.03,42.32,168.8-16.31-.58-32.63-1.02-48.95-1.32-1.86-10.89-3.71-21.78-5.57-32.66ZM443.36,541.07c-4.36-24.96-8.72-49.89-13.08-74.79-.37,0-.74,0-1.11,0-4.35,24.88-8.71,49.75-13.06,74.62,9.08.03,18.17.09,27.25.18Z"/>
    <path class="cls-43" d="M510.62,465c-10.47-.09-20.94-.17-31.41-.24,0-10.92,0-21.84-.01-32.76,34.55.01,69.11.03,103.66.06,0,11.26.01,22.51.02,33.77-10.38-.15-20.75-.28-31.13-.4.03,46.08.05,92.17.08,138.25-13.71-.79-27.43-1.48-41.14-2.07-.02-45.53-.05-91.07-.07-136.6Z"/>
    <path class="cls-43" d="M590.74,432.07c29.65.03,59.29.06,88.93.1,0,11.84,0,23.69,0,35.53-15.93-.35-31.86-.67-47.79-.97,0,13.52,0,27.05.02,40.57,12.5.48,25,1,37.5,1.56,0,9.01,0,18.03,0,27.04-12.49-.75-24.99-1.45-37.49-2.1,0,13.88,0,27.77.02,41.65,16.57,1.2,33.13,2.54,49.69,4v35.57c-30.24-3.3-60.5-6.07-90.78-8.33-.03-58.21-.06-116.42-.09-174.64Z"/>
  </g>
</svg>