<?xml version="1.0" encoding="UTF-8"?>
<svg id="Layer_1" data-name="Layer 1" xmlns="http://www.w3.org/2000/svg" xmlns:xlink="http://www.w3.org/1999/xlink" viewBox="0 0 227.66 185.41">
  <defs>
    <style>
      .cls-1 {
        fill: #2b2b2b;
      }

      .cls-2 {
        fill: url(#linear-gradient-8);
      }

      .cls-3 {
        fill: url(#linear-gradient-7);
      }

      .cls-4 {
        fill: url(#linear-gradient-5);
      }

      .cls-5 {
        fill: url(#linear-gradient-6);
      }

      .cls-6 {
        fill: url(#linear-gradient-9);
      }

      .cls-7 {
        fill: url(#linear-gradient-4);
      }

      .cls-8 {
        fill: url(#linear-gradient-3);
      }

      .cls-9 {
        fill: url(#linear-gradient-2);
      }

      .cls-10 {
        fill: url(#linear-gradient);
      }

      .cls-11 {
        fill: #fff;
      }

      .cls-12 {
        fill: url(#linear-gradient-10);
      }

      .cls-13 {
        fill: url(#linear-gradient-11);
      }

      .cls-14 {
        fill: url(#linear-gradient-12);
      }

      .cls-15 {
        fill: url(#linear-gradient-13);
      }

      .cls-16 {
        fill: url(#linear-gradient-19);
      }

      .cls-17 {
        fill: url(#linear-gradient-14);
      }

      .cls-18 {
        fill: url(#linear-gradient-21);
      }

      .cls-19 {
        fill: url(#linear-gradient-20);
      }

      .cls-20 {
        fill: url(#linear-gradient-22);
      }

      .cls-21 {
        fill: url(#linear-gradient-23);
      }

      .cls-22 {
        fill: url(#linear-gradient-28);
      }

      .cls-23 {
        fill: url(#linear-gradient-25);
      }

      .cls-24 {
        fill: url(#linear-gradient-32);
      }

      .cls-25 {
        fill: url(#linear-gradient-31);
      }

      .cls-26 {
        fill: url(#linear-gradient-33);
      }

      .cls-27 {
        fill: url(#linear-gradient-30);
      }

      .cls-28 {
        fill: url(#linear-gradient-15);
      }

      .cls-29 {
        fill: url(#linear-gradient-16);
      }

      .cls-30 {
        fill: url(#linear-gradient-17);
      }

      .cls-31 {
        fill: url(#linear-gradient-18);
      }

      .cls-32 {
        fill: url(#linear-gradient-35);
      }

      .cls-33 {
        fill: url(#linear-gradient-34);
      }

      .cls-34 {
        fill: url(#linear-gradient-36);
      }

      .cls-35 {
        fill: url(#linear-gradient-38);
      }

      .cls-36 {
        fill: url(#linear-gradient-27);
      }

      .cls-37 {
        fill: url(#linear-gradient-24);
      }

      .cls-38 {
        fill: url(#linear-gradient-26);
      }

      .cls-39 {
        fill: url(#linear-gradient-29);
      }

      .cls-40 {
        fill: url(#linear-gradient-37);
      }

      .cls-41 {
        fill: url(#linear-gradient-39);
      }

      .cls-42 {
        fill: #ffb633;
      }
    </style>
    <linearGradient id="linear-gradient" x1="61.44" y1="57.27" x2="166.1" y2="57.27" gradientTransform="translate(157.67 173.27) rotate(-135)" gradientUnits="userSpaceOnUse">
      <stop offset="0" stop-color="#000"/>
      <stop offset=".31" stop-color="#282828"/>
      <stop offset=".51" stop-color="#3a3a3a"/>
      <stop offset=".71" stop-color="#282828"/>
      <stop offset="1" stop-color="#000"/>
    </linearGradient>
    <linearGradient id="linear-gradient-2" x1="63.16" y1="57.26" x2="164.38" y2="57.26" gradientTransform="translate(157.67 173.27) rotate(-135)" gradientUnits="userSpaceOnUse">
      <stop offset="0" stop-color="#111"/>
      <stop offset=".31" stop-color="#282828"/>
      <stop offset=".51" stop-color="#3a3a3a"/>
      <stop offset=".71" stop-color="#282828"/>
      <stop offset="1" stop-color="#111"/>
    </linearGradient>
    <linearGradient id="linear-gradient-3" x1="63.87" y1="57.26" x2="163.67" y2="57.26" xlink:href="#linear-gradient-2"/>
    <linearGradient id="linear-gradient-4" x1="64.96" y1="57.26" x2="162.58" y2="57.26" xlink:href="#linear-gradient-2"/>
    <linearGradient id="linear-gradient-5" x1="65.73" y1="57.26" x2="161.8" y2="57.26" xlink:href="#linear-gradient-2"/>
    <linearGradient id="linear-gradient-6" x1="66.45" y1="57.26" x2="161.09" y2="57.26" xlink:href="#linear-gradient-2"/>
    <linearGradient id="linear-gradient-7" x1="67.25" y1="57.26" x2="160.29" y2="57.26" xlink:href="#linear-gradient-2"/>
    <linearGradient id="linear-gradient-8" x1="68.22" y1="57.26" x2="159.32" y2="57.26" xlink:href="#linear-gradient-2"/>
    <linearGradient id="linear-gradient-9" x1="68.8" y1="57.26" x2="158.74" y2="57.26" xlink:href="#linear-gradient-2"/>
    <linearGradient id="linear-gradient-10" x1="69.65" y1="57.26" x2="157.89" y2="57.26" xlink:href="#linear-gradient-2"/>
    <linearGradient id="linear-gradient-11" x1="70.7" y1="57.26" x2="156.84" y2="57.26" xlink:href="#linear-gradient-2"/>
    <linearGradient id="linear-gradient-12" x1="71.59" y1="57.26" x2="155.95" y2="57.26" xlink:href="#linear-gradient-2"/>
    <linearGradient id="linear-gradient-13" x1="72.51" y1="57.26" x2="155.03" y2="57.26" xlink:href="#linear-gradient-2"/>
    <linearGradient id="linear-gradient-14" x1="73.25" y1="57.26" x2="154.29" y2="57.26" xlink:href="#linear-gradient-2"/>
    <linearGradient id="linear-gradient-15" x1="74.05" y1="57.26" x2="153.49" y2="57.26" xlink:href="#linear-gradient-2"/>
    <linearGradient id="linear-gradient-16" x1="74.72" y1="57.26" x2="152.82" y2="57.26" xlink:href="#linear-gradient-2"/>
    <linearGradient id="linear-gradient-17" x1="75.65" y1="57.26" x2="151.9" y2="57.26" xlink:href="#linear-gradient-2"/>
    <linearGradient id="linear-gradient-18" x1="76.41" y1="57.26" x2="151.14" y2="57.26" xlink:href="#linear-gradient-2"/>
    <linearGradient id="linear-gradient-19" x1="77.04" y1="57.26" x2="150.51" y2="57.26" xlink:href="#linear-gradient-2"/>
    <linearGradient id="linear-gradient-20" x1="77.91" y1="57.26" x2="149.64" y2="57.26" xlink:href="#linear-gradient-2"/>
    <linearGradient id="linear-gradient-21" x1="78.73" y1="57.25" x2="148.83" y2="57.25" xlink:href="#linear-gradient-2"/>
    <linearGradient id="linear-gradient-22" x1="79.42" y1="57.25" x2="148.13" y2="57.25" xlink:href="#linear-gradient-2"/>
    <linearGradient id="linear-gradient-23" x1="80.17" y1="57.25" x2="147.38" y2="57.25" xlink:href="#linear-gradient-2"/>
    <linearGradient id="linear-gradient-24" x1="80.93" y1="57.25" x2="146.62" y2="57.25" xlink:href="#linear-gradient-2"/>
    <linearGradient id="linear-gradient-25" x1="81.46" y1="57.25" x2="146.1" y2="57.25" xlink:href="#linear-gradient-2"/>
    <linearGradient id="linear-gradient-26" x1="82.25" y1="57.25" x2="145.3" y2="57.25" xlink:href="#linear-gradient-2"/>
    <linearGradient id="linear-gradient-27" x1="83.1" y1="57.25" x2="144.46" y2="57.25" xlink:href="#linear-gradient-2"/>
    <linearGradient id="linear-gradient-28" x1="83.79" y1="57.25" x2="143.76" y2="57.25" xlink:href="#linear-gradient-2"/>
    <linearGradient id="linear-gradient-29" x1="84.62" y1="57.25" x2="142.94" y2="57.25" xlink:href="#linear-gradient-2"/>
    <linearGradient id="linear-gradient-30" x1="85.23" y1="57.25" x2="142.33" y2="57.25" xlink:href="#linear-gradient-2"/>
    <linearGradient id="linear-gradient-31" x1="85.99" y1="57.25" x2="141.57" y2="57.25" xlink:href="#linear-gradient-2"/>
    <linearGradient id="linear-gradient-32" x1="86.84" y1="57.25" x2="140.72" y2="57.25" xlink:href="#linear-gradient-2"/>
    <linearGradient id="linear-gradient-33" x1="87.35" y1="57.25" x2="140.21" y2="57.25" xlink:href="#linear-gradient-2"/>
    <linearGradient id="linear-gradient-34" x1="88.25" y1="57.25" x2="139.32" y2="57.25" xlink:href="#linear-gradient-2"/>
    <linearGradient id="linear-gradient-35" x1="89.15" y1="57.24" x2="138.42" y2="57.24" xlink:href="#linear-gradient-2"/>
    <linearGradient id="linear-gradient-36" x1="90" y1="57.24" x2="137.57" y2="57.24" xlink:href="#linear-gradient-2"/>
    <linearGradient id="linear-gradient-37" x1="90.68" y1="57.24" x2="136.89" y2="57.24" xlink:href="#linear-gradient-2"/>
    <linearGradient id="linear-gradient-38" x1="91.41" y1="57.24" x2="136.16" y2="57.24" xlink:href="#linear-gradient-2"/>
    <linearGradient id="linear-gradient-39" x1="92.13" y1="57.24" x2="135.43" y2="57.24" xlink:href="#linear-gradient-2"/>
  </defs>
  <path class="cls-1" d="M115.2,52.38c-.03-1.39,1.08-2.53,2.46-2.56,1.39-.03,2.53,1.08,2.56,2.46.03,1.39-1.08,2.53-2.46,2.56-1.39.03-2.53-1.08-2.56-2.46ZM117.74,53.83c.83-.02,1.48-.7,1.47-1.52-.02-.83-.7-1.48-1.52-1.47-.83.02-1.48.7-1.47,1.52.02.83.7,1.48,1.52,1.47Z"/>
  <g>
    <path class="cls-10" d="M65.4,53.32C64.85,24.42,87.84.56,116.73,0c28.9-.55,52.76,22.44,53.31,51.33.55,28.9-22.44,52.76-51.33,53.31-28.9.55-52.76-22.44-53.31-51.33ZM117.74,53.89c.86-.02,1.54-.73,1.53-1.59-.02-.86-.73-1.54-1.59-1.53-.86.02-1.54.73-1.53,1.59.02.86.73,1.54,1.59,1.53Z"/>
    <path d="M67,53.29c-.53-28.01,21.75-51.15,49.76-51.68,28.01-.53,51.15,21.75,51.68,49.76.53,28.01-21.75,51.15-49.76,51.68-28.01.53-51.15-21.75-51.68-49.76ZM117.74,53.89c.86-.02,1.54-.73,1.53-1.59-.02-.86-.73-1.54-1.59-1.53-.86.02-1.54.73-1.53,1.59.02.86.73,1.54,1.59,1.53Z"/>
    <path class="cls-9" d="M67.12,53.29c-.53-27.95,21.7-51.03,49.64-51.56,27.95-.53,51.03,21.7,51.56,49.64.53,27.95-21.7,51.03-49.64,51.56-27.95.53-51.03-21.7-51.56-49.64ZM117.74,53.89c.86-.02,1.54-.73,1.53-1.59-.02-.86-.73-1.54-1.59-1.53-.86.02-1.54.73-1.53,1.59.02.86.73,1.54,1.59,1.53Z"/>
    <path d="M67.63,53.28c-.52-27.67,21.48-50.52,49.15-51.04,27.67-.52,50.52,21.48,51.04,49.15.52,27.67-21.48,50.52-49.15,51.04-27.67.52-50.52-21.48-51.04-49.15ZM117.74,53.89c.86-.02,1.54-.73,1.53-1.59-.02-.86-.73-1.54-1.59-1.53-.86.02-1.54.73-1.53,1.59.02.86.73,1.54,1.59,1.53Z"/>
    <path class="cls-8" d="M67.83,53.27c-.52-27.55,21.39-50.31,48.95-50.83,27.55-.52,50.31,21.39,50.83,48.95.52,27.55-21.39,50.31-48.95,50.83-27.55.52-50.31-21.39-50.84-48.95ZM117.74,53.89c.86-.02,1.54-.73,1.53-1.59-.02-.86-.73-1.54-1.59-1.53-.86.02-1.54.73-1.53,1.59.02.86.73,1.54,1.59,1.53Z"/>
    <path d="M68.77,53.26c-.51-27.03,20.99-49.36,48.02-49.87,27.03-.51,49.36,20.99,49.87,48.02.51,27.03-20.99,49.36-48.02,49.87-27.03.51-49.36-20.99-49.87-48.02ZM117.74,53.89c.86-.02,1.54-.73,1.53-1.59-.02-.86-.73-1.54-1.59-1.53-.86.02-1.54.73-1.53,1.59.02.86.73,1.54,1.59,1.53Z"/>
    <path class="cls-7" d="M68.92,53.25c-.51-26.95,20.93-49.21,47.88-49.72,26.95-.51,49.21,20.93,49.72,47.88.51,26.95-20.93,49.21-47.88,49.72-26.95.51-49.21-20.93-49.72-47.88ZM117.74,53.89c.86-.02,1.54-.73,1.53-1.59-.02-.86-.73-1.54-1.59-1.53-.86.02-1.54.73-1.53,1.59.02.86.73,1.54,1.59,1.53Z"/>
    <path d="M69.55,53.24c-.5-26.6,20.66-48.58,47.26-49.08,26.6-.5,48.58,20.66,49.08,47.26.5,26.6-20.66,48.58-47.26,49.08-26.6.5-48.58-20.66-49.08-47.26ZM117.74,53.89c.86-.02,1.54-.73,1.53-1.59-.02-.86-.73-1.54-1.59-1.53-.86.02-1.54.73-1.53,1.59.02.86.73,1.54,1.59,1.53Z"/>
    <path class="cls-4" d="M69.69,53.24c-.5-26.52,20.59-48.43,47.12-48.93,26.52-.5,48.43,20.59,48.93,47.12.5,26.52-20.59,48.43-47.12,48.93-26.53.5-48.43-20.59-48.94-47.12ZM117.74,53.89c.86-.02,1.54-.73,1.53-1.59-.02-.86-.73-1.54-1.59-1.53-.86.02-1.54.73-1.53,1.59.02.86.73,1.54,1.59,1.53Z"/>
    <path d="M70.17,53.23c-.5-26.26,20.39-47.95,46.65-48.45,26.26-.5,47.95,20.39,48.45,46.65.5,26.26-20.39,47.95-46.65,48.45-26.26.5-47.95-20.39-48.45-46.65ZM117.74,53.89c.86-.02,1.54-.73,1.53-1.59-.02-.86-.73-1.54-1.59-1.53-.86.02-1.54.73-1.53,1.59.02.86.73,1.54,1.59,1.53Z"/>
    <path class="cls-5" d="M70.41,53.23c-.49-26.13,20.29-47.71,46.42-48.21,26.13-.49,47.71,20.29,48.2,46.42.49,26.13-20.29,47.71-46.41,48.21-26.13.49-47.71-20.29-48.21-46.42ZM117.74,53.89c.86-.02,1.54-.73,1.53-1.59-.02-.86-.73-1.54-1.59-1.53-.86.02-1.54.73-1.53,1.59.02.86.73,1.54,1.59,1.53Z"/>
    <path d="M71.07,53.21c-.49-25.76,20-47.05,45.77-47.53,25.76-.49,47.04,20.01,47.53,45.77.49,25.77-20,47.05-45.77,47.54-25.77.49-47.05-20-47.54-45.77ZM117.74,53.89c.86-.02,1.54-.73,1.53-1.59-.02-.86-.73-1.54-1.59-1.53-.86.02-1.54.73-1.53,1.59.02.86.73,1.54,1.59,1.53Z"/>
    <path class="cls-3" d="M71.21,53.21c-.49-25.69,19.94-46.91,45.64-47.39,25.69-.49,46.9,19.95,47.39,45.63.49,25.69-19.94,46.91-45.63,47.39-25.69.49-46.91-19.94-47.4-45.63ZM117.74,53.89c.86-.02,1.54-.73,1.53-1.59-.02-.86-.73-1.54-1.59-1.53-.86.02-1.54.73-1.53,1.59.02.86.73,1.54,1.59,1.53Z"/>
    <path d="M71.99,53.2c-.48-25.25,19.61-46.11,44.87-46.59,25.25-.48,46.11,19.61,46.59,44.86.48,25.26-19.61,46.12-44.86,46.59-25.26.48-46.12-19.61-46.6-44.86ZM117.74,53.89c.86-.02,1.54-.73,1.53-1.59-.02-.86-.73-1.54-1.59-1.53-.86.02-1.54.73-1.53,1.59.02.86.73,1.54,1.59,1.53Z"/>
    <path class="cls-2" d="M72.17,53.19c-.48-25.15,19.53-45.93,44.69-46.41,25.15-.48,45.93,19.53,46.4,44.68.48,25.15-19.53,45.93-44.68,46.41-25.16.48-45.94-19.53-46.41-44.68ZM117.74,53.89c.86-.02,1.54-.73,1.53-1.59-.02-.86-.73-1.54-1.59-1.53-.86.02-1.54.73-1.53,1.59.02.86.73,1.54,1.59,1.53Z"/>
    <path d="M72.58,53.18c-.47-24.93,19.36-45.52,44.29-45.99,24.92-.47,45.52,19.36,45.99,44.28.47,24.93-19.35,45.52-44.28,45.99-24.93.47-45.52-19.35-46-44.28ZM117.74,53.89c.86-.02,1.54-.73,1.53-1.59-.02-.86-.73-1.54-1.59-1.53-.86.02-1.54.73-1.53,1.59.02.86.73,1.54,1.59,1.53Z"/>
    <path class="cls-6" d="M72.76,53.18c-.47-24.83,19.28-45.34,44.11-45.81,24.82-.47,45.33,19.28,45.8,44.11.47,24.83-19.28,45.34-44.1,45.81-24.83.47-45.34-19.28-45.81-44.11ZM117.74,53.89c.86-.02,1.54-.73,1.53-1.59-.02-.86-.73-1.54-1.59-1.53-.86.02-1.54.73-1.53,1.59.02.86.73,1.54,1.59,1.53Z"/>
    <path d="M73.47,53.17c-.46-24.43,18.97-44.62,43.41-45.08,24.43-.46,44.61,18.97,45.07,43.41.46,24.44-18.97,44.62-43.4,45.08-24.44.46-44.62-18.97-45.09-43.41ZM117.74,53.89c.86-.02,1.54-.73,1.53-1.59-.02-.86-.73-1.54-1.59-1.53-.86.02-1.54.73-1.53,1.59.02.86.73,1.54,1.59,1.53Z"/>
    <path class="cls-12" d="M73.61,53.17c-.46-24.36,18.91-44.48,43.28-44.94,24.36-.46,44.48,18.91,44.94,43.28.46,24.36-18.91,44.48-43.27,44.95-24.37.46-44.49-18.91-44.95-43.28ZM117.74,53.89c.86-.02,1.54-.73,1.53-1.59-.02-.86-.73-1.54-1.59-1.53-.86.02-1.54.73-1.53,1.59.02.86.73,1.54,1.59,1.53Z"/>
    <path d="M74.48,53.15c-.45-23.88,18.54-43.6,42.43-44.05,23.87-.45,43.6,18.54,44.05,42.42.45,23.88-18.54,43.6-42.41,44.06-23.89.45-43.61-18.54-44.06-42.42ZM117.74,53.89c.86-.02,1.54-.73,1.53-1.59-.02-.86-.73-1.54-1.59-1.53-.86.02-1.54.73-1.53,1.59.02.86.73,1.54,1.59,1.53Z"/>
    <path class="cls-13" d="M74.65,53.15c-.45-23.78,18.47-43.43,42.26-43.88,23.78-.45,43.42,18.47,43.87,42.25.45,23.78-18.47,43.43-42.24,43.88-23.79.45-43.44-18.47-43.89-42.25ZM117.74,53.89c.86-.02,1.54-.73,1.53-1.59-.02-.86-.73-1.54-1.59-1.53-.86.02-1.54.73-1.53,1.59.02.86.73,1.54,1.59,1.53Z"/>
    <path d="M75.38,53.13c-.44-23.38,18.15-42.7,41.54-43.14,23.38-.44,42.69,18.15,43.13,41.54.44,23.38-18.15,42.7-41.53,43.14-23.39.44-42.7-18.15-43.15-41.54ZM117.74,53.89c.86-.02,1.54-.73,1.53-1.59-.02-.86-.73-1.54-1.59-1.53-.86.02-1.54.73-1.53,1.59.02.86.73,1.54,1.59,1.53Z"/>
    <path class="cls-14" d="M75.54,53.13c-.44-23.29,18.08-42.52,41.38-42.97,23.28-.44,42.52,18.08,42.96,41.37.44,23.29-18.08,42.53-41.36,42.97-23.3.44-42.53-18.08-42.97-41.37ZM117.74,53.89c.86-.02,1.54-.73,1.53-1.59-.02-.86-.73-1.54-1.59-1.53-.86.02-1.54.73-1.53,1.59.02.86.73,1.54,1.59,1.53Z"/>
    <path d="M76.21,53.12c-.43-22.92,17.8-41.85,40.72-42.28,22.91-.43,41.84,17.8,42.28,40.71.43,22.92-17.79,41.85-40.71,42.28-22.93.43-41.86-17.79-42.29-40.72ZM117.74,53.89c.86-.02,1.54-.73,1.53-1.59-.02-.86-.73-1.54-1.59-1.53-.86.02-1.54.73-1.53,1.59.02.86.73,1.54,1.59,1.53Z"/>
    <path class="cls-15" d="M76.46,53.11c-.43-22.78,17.69-41.6,40.48-42.03,22.77-.43,41.59,17.69,42.02,40.47.43,22.78-17.69,41.6-40.46,42.03-22.79.43-41.61-17.69-42.04-40.47ZM117.74,53.89c.86-.02,1.54-.73,1.53-1.59-.02-.86-.73-1.54-1.59-1.53-.86.02-1.54.73-1.53,1.59.02.86.73,1.54,1.59,1.53Z"/>
    <path d="M77.12,53.1c-.42-22.42,17.41-40.94,39.84-41.36,22.41-.42,40.93,17.41,41.35,39.83.42,22.42-17.41,40.94-39.82,41.36-22.43.42-40.95-17.41-41.37-39.83ZM117.74,53.89c.86-.02,1.54-.73,1.53-1.59-.02-.86-.73-1.54-1.59-1.53-.86.02-1.54.73-1.53,1.59.02.86.73,1.54,1.59,1.53Z"/>
    <path class="cls-17" d="M77.2,53.1c-.42-22.37,17.37-40.86,39.76-41.28,22.37-.42,40.85,17.37,41.27,39.75.42,22.38-17.37,40.86-39.74,41.28-22.38.42-40.87-17.37-41.29-39.75ZM117.74,53.89c.86-.02,1.54-.73,1.53-1.59-.02-.86-.73-1.54-1.59-1.53-.86.02-1.54.73-1.53,1.59.02.86.73,1.54,1.59,1.53Z"/>
    <path d="M77.88,53.08c-.42-22,17.08-40.17,39.09-40.58,21.99-.42,40.16,17.08,40.57,39.08.42,22-17.08,40.17-39.07,40.59-22.01.42-40.18-17.08-40.59-39.08ZM117.74,53.89c.86-.02,1.54-.73,1.53-1.59-.02-.86-.73-1.54-1.59-1.53-.86.02-1.54.73-1.53,1.59.02.86.73,1.54,1.59,1.53Z"/>
    <path class="cls-28" d="M78,53.08c-.41-21.93,17.03-40.05,38.97-40.46,21.92-.41,40.04,17.03,40.45,38.96.41,21.93-17.03,40.05-38.95,40.46-21.94.41-40.06-17.03-40.47-38.96ZM117.74,53.89c.86-.02,1.54-.73,1.53-1.59-.02-.86-.73-1.54-1.59-1.53-.86.02-1.54.73-1.53,1.59.02.86.73,1.54,1.59,1.53Z"/>
    <path d="M78.55,53.07c-.41-21.63,16.79-39.49,38.43-39.9,21.62-.41,39.48,16.79,39.89,38.42.41,21.63-16.79,39.49-38.41,39.9-21.64.41-39.5-16.79-39.91-38.42ZM117.74,53.89c.86-.02,1.54-.73,1.53-1.59-.02-.86-.73-1.54-1.59-1.53-.86.02-1.54.73-1.53,1.59.02.86.73,1.54,1.59,1.53Z"/>
    <path class="cls-29" d="M78.67,53.07c-.41-21.56,16.74-39.37,38.32-39.78,21.55-.41,39.36,16.74,39.77,38.3.41,21.56-16.74,39.37-38.29,39.78-21.57.41-39.38-16.74-39.79-38.3ZM117.74,53.89c.86-.02,1.54-.73,1.53-1.59-.02-.86-.73-1.54-1.59-1.53-.86.02-1.54.73-1.53,1.59.02.86.73,1.54,1.59,1.53Z"/>
    <path d="M79.4,53.06c-.4-21.16,16.43-38.63,37.59-39.03,21.14-.4,38.62,16.43,39.02,37.58.4,21.16-16.43,38.63-37.57,39.03-21.17.4-38.64-16.43-39.04-37.58ZM117.74,53.89c.86-.02,1.54-.73,1.53-1.59-.02-.86-.73-1.54-1.59-1.53-.86.02-1.54.73-1.53,1.59.02.86.73,1.54,1.59,1.53Z"/>
    <path class="cls-30" d="M79.59,53.05c-.4-21.05,16.34-38.44,37.41-38.84,21.04-.4,38.43,16.34,38.82,37.39.4,21.05-16.34,38.44-37.38,38.84-21.06.4-38.45-16.34-38.85-37.4ZM117.74,53.89c.86-.02,1.54-.73,1.53-1.59-.02-.86-.73-1.54-1.59-1.53-.86.02-1.54.73-1.53,1.59.02.86.73,1.54,1.59,1.53Z"/>
    <path d="M80.24,53.04c-.39-20.69,16.07-37.79,36.78-38.18,20.68-.39,37.78,16.07,38.17,36.76.39,20.7-16.07,37.79-36.75,38.18-20.71.39-37.8-16.07-38.19-36.77ZM117.74,53.89c.86-.02,1.54-.73,1.53-1.59-.02-.86-.73-1.54-1.59-1.53-.86.02-1.54.73-1.53,1.59.02.86.73,1.54,1.59,1.53Z"/>
    <path class="cls-31" d="M80.35,53.04c-.39-20.63,16.02-37.68,36.67-38.07,20.62-.39,37.66,16.02,38.05,36.65.39,20.64-16.02,37.68-36.64,38.07-20.65.39-37.69-16.02-38.08-36.66ZM117.74,53.89c.86-.02,1.54-.73,1.53-1.59-.02-.86-.73-1.54-1.59-1.53-.86.02-1.54.73-1.53,1.59.02.86.73,1.54,1.59,1.53Z"/>
    <path d="M80.83,53.03c-.39-20.37,15.81-37.19,36.19-37.57,20.35-.39,37.18,15.81,37.56,36.18.39,20.37-15.81,37.19-36.17,37.58-20.38.39-37.2-15.81-37.59-36.18ZM117.74,53.89c.86-.02,1.54-.73,1.53-1.59-.02-.86-.73-1.54-1.59-1.53-.86.02-1.54.73-1.53,1.59.02.86.73,1.54,1.59,1.53Z"/>
    <path class="cls-16" d="M80.98,53.03c-.38-20.28,15.75-37.04,36.05-37.42,20.27-.38,37.03,15.75,37.41,36.04.38,20.29-15.75,37.04-36.02,37.43-20.3.38-37.06-15.75-37.44-36.04ZM117.74,53.89c.86-.02,1.54-.73,1.53-1.59-.02-.86-.73-1.54-1.59-1.53-.86.02-1.54.73-1.53,1.59.02.86.73,1.54,1.59,1.53Z"/>
    <path d="M81.74,53.01c-.38-19.86,15.42-36.27,35.3-36.65,19.85-.38,36.26,15.42,36.63,35.29.38,19.87-15.42,36.27-35.27,36.65-19.88.38-36.29-15.42-36.66-35.29ZM117.74,53.89c.86-.02,1.54-.73,1.53-1.59-.02-.86-.73-1.54-1.59-1.53-.86.02-1.54.73-1.53,1.59.02.86.73,1.54,1.59,1.53Z"/>
    <path class="cls-19" d="M81.85,53.01c-.37-19.8,15.38-36.16,35.2-36.54,19.79-.37,36.15,15.38,36.52,35.18.37,19.81-15.38,36.16-35.17,36.54-19.82.37-36.18-15.38-36.55-35.18ZM117.74,53.89c.86-.02,1.54-.73,1.53-1.59-.02-.86-.73-1.54-1.59-1.53-.86.02-1.54.73-1.53,1.59.02.86.73,1.54,1.59,1.53Z"/>
    <path d="M82.52,53c-.37-19.43,15.09-35.48,34.53-35.85,19.42-.37,35.47,15.09,35.83,34.52.37,19.43-15.09,35.48-34.5,35.85-19.45.37-35.5-15.09-35.86-34.52ZM117.74,53.89c.86-.02,1.54-.73,1.53-1.59-.02-.86-.73-1.54-1.59-1.53-.86.02-1.54.73-1.53,1.59.02.86.73,1.54,1.59,1.53Z"/>
    <path class="cls-18" d="M82.66,52.99c-.37-19.35,15.03-35.34,34.4-35.71,19.34-.37,35.32,15.03,35.69,34.38.37,19.36-15.03,35.34-34.37,35.71-19.37.37-35.36-15.03-35.72-34.38ZM117.74,53.89c.86-.02,1.54-.73,1.53-1.59-.02-.86-.73-1.54-1.59-1.53-.86.02-1.54.73-1.53,1.59.02.86.73,1.54,1.59,1.53Z"/>
    <path d="M83.18,52.98c-.36-19.06,14.8-34.81,33.88-35.17,19.05-.36,34.8,14.8,35.16,33.87.36,19.07-14.8,34.82-33.85,35.18-19.08.36-34.83-14.8-35.19-33.87ZM117.74,53.89c.86-.02,1.54-.73,1.53-1.59-.02-.86-.73-1.54-1.59-1.53-.86.02-1.54.73-1.53,1.59.02.86.73,1.54,1.59,1.53Z"/>
    <path class="cls-20" d="M83.36,52.98c-.36-18.97,14.73-34.64,33.72-35,18.95-.36,34.62,14.73,34.98,33.7.36,18.97-14.73,34.64-33.68,35-18.99.36-34.66-14.73-35.02-33.7ZM117.74,53.89c.86-.02,1.54-.73,1.53-1.59-.02-.86-.73-1.54-1.59-1.53-.86.02-1.54.73-1.53,1.59.02.86.73,1.54,1.59,1.53Z"/>
    <path d="M83.87,52.97c-.35-18.69,14.51-34.12,33.21-34.48,18.67-.35,34.11,14.51,34.46,33.2.35,18.69-14.51,34.13-33.18,34.48-18.7.35-34.14-14.51-34.49-33.2ZM117.74,53.89c.86-.02,1.54-.73,1.53-1.59-.02-.86-.73-1.54-1.59-1.53-.86.02-1.54.73-1.53,1.59.02.86.73,1.54,1.59,1.53Z"/>
    <path class="cls-21" d="M84.1,52.97c-.35-18.56,14.41-33.88,32.98-34.24,18.54-.35,33.87,14.41,34.22,32.96.35,18.56-14.41,33.89-32.95,34.24-18.57.35-33.9-14.41-34.25-32.97ZM117.74,53.89c.86-.02,1.54-.73,1.53-1.59-.02-.86-.73-1.54-1.59-1.53-.86.02-1.54.73-1.53,1.59.02.86.73,1.54,1.59,1.53Z"/>
    <path d="M84.73,52.95c-.34-18.21,14.14-33.25,32.36-33.59,18.19-.34,33.23,14.14,33.57,32.34.34,18.21-14.14,33.25-32.33,33.59-18.23.34-33.27-14.14-33.61-32.35ZM117.74,53.89c.86-.02,1.54-.73,1.53-1.59-.02-.86-.73-1.54-1.59-1.53-.86.02-1.54.73-1.53,1.59.02.86.73,1.54,1.59,1.53Z"/>
    <path class="cls-37" d="M84.87,52.95c-.34-18.13,14.08-33.11,32.23-33.46,18.12-.34,33.1,14.08,33.44,32.21.34,18.14-14.08,33.12-32.2,33.46-18.15.34-33.13-14.08-33.48-32.22ZM117.74,53.89c.86-.02,1.54-.73,1.53-1.59-.02-.86-.73-1.54-1.59-1.53-.86.02-1.54.73-1.53,1.59.02.86.73,1.54,1.59,1.53Z"/>
    <path d="M85.29,52.94c-.34-17.9,13.9-32.69,31.82-33.02,17.88-.34,32.67,13.9,33.01,31.8.34,17.9-13.9,32.69-31.78,33.03-17.92.34-32.71-13.9-33.04-31.8ZM117.74,53.89c.86-.02,1.54-.73,1.53-1.59-.02-.86-.73-1.54-1.59-1.53-.86.02-1.54.73-1.53,1.59.02.86.73,1.54,1.59,1.53Z"/>
    <path class="cls-23" d="M85.39,52.94c-.34-17.85,13.86-32.59,31.72-32.93,17.83-.34,32.57,13.86,32.91,31.7.34,17.85-13.86,32.59-31.69,32.93-17.87.34-32.61-13.86-32.95-31.71ZM117.74,53.89c.86-.02,1.54-.73,1.53-1.59-.02-.86-.73-1.54-1.59-1.53-.86.02-1.54.73-1.53,1.59.02.86.73,1.54,1.59,1.53Z"/>
    <path d="M86.03,52.93c-.33-17.49,13.58-31.94,31.1-32.27,17.47-.33,31.92,13.58,32.26,31.07.33,17.5-13.58,31.95-31.06,32.28-17.51.33-31.96-13.58-32.29-31.08ZM117.74,53.89c.86-.02,1.54-.73,1.53-1.59-.02-.86-.73-1.54-1.59-1.53-.86.02-1.54.73-1.53,1.59.02.86.73,1.54,1.59,1.53Z"/>
    <path class="cls-38" d="M86.18,52.93c-.33-17.4,13.51-31.78,30.94-32.11,17.39-.33,31.76,13.52,32.09,30.92.33,17.41-13.51,31.79-30.9,32.12-17.43.33-31.8-13.51-32.13-30.92ZM117.74,53.89c.86-.02,1.54-.73,1.53-1.59-.02-.86-.73-1.54-1.59-1.53-.86.02-1.54.73-1.53,1.59.02.86.73,1.54,1.59,1.53Z"/>
    <path d="M86.9,52.91c-.32-17.01,13.21-31.06,30.24-31.38,16.99-.32,31.04,13.21,31.36,30.22.32,17.01-13.21,31.06-30.2,31.38-17.03.32-31.08-13.21-31.4-30.22ZM117.74,53.89c.86-.02,1.54-.73,1.53-1.59-.02-.86-.73-1.54-1.59-1.53-.86.02-1.54.73-1.53,1.59.02.86.73,1.54,1.59,1.53Z"/>
    <path class="cls-36" d="M87.02,52.91c-.32-16.94,13.15-30.94,30.12-31.26,16.92-.32,30.92,13.16,31.24,30.1.32,16.94-13.15,30.94-30.08,31.26-16.96.32-30.96-13.15-31.28-30.1ZM117.74,53.89c.86-.02,1.54-.73,1.53-1.59-.02-.86-.73-1.54-1.59-1.53-.86.02-1.54.73-1.53,1.59.02.86.73,1.54,1.59,1.53Z"/>
    <path d="M87.57,52.9c-.31-16.64,12.92-30.38,29.58-30.7,16.62-.31,30.36,12.92,30.68,29.56.31,16.64-12.92,30.39-29.54,30.7-16.66.32-30.41-12.92-30.72-29.56ZM117.74,53.89c.86-.02,1.54-.73,1.53-1.59-.02-.86-.73-1.54-1.59-1.53-.86.02-1.54.73-1.53,1.59.02.86.73,1.54,1.59,1.53Z"/>
    <path class="cls-22" d="M87.72,52.9c-.31-16.55,12.86-30.23,29.43-30.54,16.54-.31,30.21,12.86,30.53,29.41.31,16.56-12.86,30.24-29.39,30.55-16.58.31-30.25-12.86-30.57-29.41ZM117.74,53.89c.86-.02,1.54-.73,1.53-1.59-.02-.86-.73-1.54-1.59-1.53-.86.02-1.54.73-1.53,1.59.02.86.73,1.54,1.59,1.53Z"/>
    <path d="M88.31,52.89c-.31-16.23,12.6-29.63,28.85-29.94,16.21-.31,29.61,12.6,29.92,28.83.31,16.23-12.6,29.64-28.81,29.94-16.25.31-29.66-12.6-29.96-28.83ZM117.74,53.89c.86-.02,1.54-.73,1.53-1.59-.02-.86-.73-1.54-1.59-1.53-.86.02-1.54.73-1.53,1.59.02.86.73,1.54,1.59,1.53Z"/>
    <path class="cls-39" d="M88.55,52.88c-.3-16.1,12.5-29.4,28.62-29.7,16.08-.3,29.38,12.5,29.68,28.6.3,16.1-12.5,29.4-28.58,29.7-16.12.3-29.42-12.5-29.72-28.6ZM117.74,53.89c.86-.02,1.54-.73,1.53-1.59-.02-.86-.73-1.54-1.59-1.53-.86.02-1.54.73-1.53,1.59.02.86.73,1.54,1.59,1.53Z"/>
    <path d="M89.04,52.87c-.3-15.83,12.29-28.9,28.14-29.2,15.81-.3,28.88,12.29,29.18,28.12.3,15.83-12.29,28.9-28.09,29.2-15.85.3-28.92-12.29-29.22-28.12ZM117.74,53.89c.86-.02,1.54-.73,1.53-1.59-.02-.86-.73-1.54-1.59-1.53-.86.02-1.54.73-1.53,1.59.02.86.73,1.54,1.59,1.53Z"/>
    <path class="cls-27" d="M89.15,52.87c-.3-15.76,12.24-28.78,28.03-29.08,15.74-.3,28.76,12.24,29.06,28,.3,15.77-12.24,28.79-27.98,29.09-15.79.3-28.81-12.24-29.11-28.01ZM117.74,53.89c.86-.02,1.54-.73,1.53-1.59-.02-.86-.73-1.54-1.59-1.53-.86.02-1.54.73-1.53,1.59.02.86.73,1.54,1.59,1.53Z"/>
    <path d="M89.77,52.86c-.29-15.42,11.97-28.16,27.42-28.45,15.4-.29,28.14,11.97,28.43,27.39.29,15.42-11.97,28.16-27.37,28.45-15.45.29-28.18-11.97-28.48-27.4ZM117.74,53.89c.86-.02,1.54-.73,1.53-1.59-.02-.86-.73-1.54-1.59-1.53-.86.02-1.54.73-1.53,1.59.02.86.73,1.54,1.59,1.53Z"/>
    <path class="cls-25" d="M89.91,52.86c-.29-15.34,11.91-28.02,27.28-28.31,15.32-.29,28,11.91,28.29,27.26.29,15.35-11.91,28.02-27.24,28.31-15.37.29-28.04-11.91-28.33-27.26ZM117.74,53.89c.86-.02,1.54-.73,1.53-1.59-.02-.86-.73-1.54-1.59-1.53-.86.02-1.54.73-1.53,1.59.02.86.73,1.54,1.59,1.53Z"/>
    <path d="M90.6,52.84c-.28-14.96,11.62-27.33,26.61-27.61,14.94-.28,27.3,11.62,27.59,26.58.28,14.97-11.62,27.33-26.56,27.61-14.99.28-27.35-11.62-27.63-26.59ZM117.74,53.89c.86-.02,1.54-.73,1.53-1.59-.02-.86-.73-1.54-1.59-1.53-.86.02-1.54.73-1.53,1.59.02.86.73,1.54,1.59,1.53Z"/>
    <path class="cls-24" d="M90.76,52.84c-.28-14.87,11.55-27.16,26.45-27.44,14.85-.28,27.14,11.55,27.42,26.42.28,14.88-11.55,27.17-26.4,27.45-14.9.28-27.19-11.55-27.47-26.43ZM117.74,53.89c.86-.02,1.54-.73,1.53-1.59-.02-.86-.73-1.54-1.59-1.53-.86.02-1.54.73-1.53,1.59.02.86.73,1.54,1.59,1.53Z"/>
    <path d="M91.14,52.83c-.28-14.67,11.39-26.78,26.08-27.06,14.64-.28,26.76,11.39,27.04,26.06.28,14.67-11.39,26.79-26.03,27.07-14.69.28-26.81-11.39-27.09-26.06ZM117.74,53.89c.86-.02,1.54-.73,1.53-1.59-.02-.86-.73-1.54-1.59-1.53-.86.02-1.54.73-1.53,1.59.02.86.73,1.54,1.59,1.53Z"/>
    <path class="cls-26" d="M91.27,52.83c-.28-14.59,11.33-26.65,25.95-26.93,14.57-.28,26.63,11.33,26.9,25.93.28,14.6-11.33,26.66-25.9,26.93-14.62.28-26.68-11.33-26.95-25.93ZM117.74,53.89c.86-.02,1.54-.73,1.53-1.59-.02-.86-.73-1.54-1.59-1.53-.86.02-1.54.73-1.53,1.59.02.86.73,1.54,1.59,1.53Z"/>
    <path d="M92,52.82c-.27-14.19,11.02-25.91,25.24-26.18,14.17-.27,25.89,11.02,26.16,25.21.27,14.2-11.02,25.92-25.19,26.19-14.22.27-25.94-11.02-26.21-25.21ZM117.74,53.89c.86-.02,1.54-.73,1.53-1.59-.02-.86-.73-1.54-1.59-1.53-.86.02-1.54.73-1.53,1.59.02.86.73,1.54,1.59,1.53Z"/>
    <path class="cls-33" d="M92.16,52.81c-.27-14.1,10.95-25.74,25.08-26.01,14.07-.27,25.72,10.95,25.98,25.05.27,14.1-10.95,25.75-25.02,26.02-14.13.27-25.78-10.95-26.05-25.05ZM117.74,53.89c.86-.02,1.54-.73,1.53-1.59-.02-.86-.73-1.54-1.59-1.53-.86.02-1.54.73-1.53,1.59.02.86.73,1.54,1.59,1.53Z"/>
    <path d="M92.82,52.8c-.26-13.74,10.67-25.08,24.44-25.34,13.71-.26,25.05,10.67,25.31,24.4.26,13.74-10.67,25.09-24.37,25.35-13.77.26-25.12-10.67-25.38-24.41ZM117.74,53.89c.86-.02,1.54-.73,1.53-1.59-.02-.86-.73-1.54-1.59-1.53-.86.02-1.54.73-1.53,1.59.02.86.73,1.54,1.59,1.53Z"/>
    <path class="cls-32" d="M93.06,52.8c-.26-13.6,10.56-24.83,24.2-25.09,13.57-.26,24.8,10.56,25.06,24.16.26,13.61-10.56,24.84-24.13,25.1-13.63.26-24.87-10.56-25.13-24.17ZM117.74,53.89c.86-.02,1.54-.73,1.53-1.59-.02-.86-.73-1.54-1.59-1.53-.86.02-1.54.73-1.53,1.59.02.86.73,1.54,1.59,1.53Z"/>
    <path d="M93.77,52.78c-.25-13.21,10.26-24.12,23.51-24.37,13.18-.25,24.09,10.26,24.34,23.47.25,13.22-10.26,24.13-23.44,24.38-13.25.25-24.16-10.26-24.41-23.48ZM117.74,53.89c.86-.02,1.54-.73,1.53-1.59-.02-.86-.73-1.54-1.59-1.53-.86.02-1.54.73-1.53,1.59.02.86.73,1.54,1.59,1.53Z"/>
    <path class="cls-34" d="M93.91,52.78c-.25-13.13,10.2-23.98,23.37-24.23,13.1-.25,23.95,10.2,24.2,23.33.25,13.14-10.2,23.99-23.3,24.23-13.17.25-24.02-10.2-24.26-23.33ZM117.74,53.89c.86-.02,1.54-.73,1.53-1.59-.02-.86-.73-1.54-1.59-1.53-.86.02-1.54.73-1.53,1.59.02.86.73,1.54,1.59,1.53Z"/>
    <path d="M94.45,52.77c-.24-12.83,9.96-23.43,22.83-23.68,12.8-.24,23.4,9.97,23.64,22.8.24,12.84-9.96,23.44-22.76,23.68-12.87.24-23.47-9.96-23.71-22.8ZM117.74,53.89c.86-.02,1.54-.73,1.53-1.59-.02-.86-.73-1.54-1.59-1.53-.86.02-1.54.73-1.53,1.59.02.86.73,1.54,1.59,1.53Z"/>
    <path class="cls-40" d="M94.59,52.77c-.24-12.75,9.9-23.29,22.7-23.53,12.72-.24,23.26,9.91,23.5,22.66.24,12.76-9.91,23.3-22.63,23.54-12.79.24-23.33-9.91-23.57-22.67ZM117.74,53.89c.86-.02,1.54-.73,1.53-1.59-.02-.86-.73-1.54-1.59-1.53-.86.02-1.54.73-1.53,1.59.02.86.73,1.54,1.59,1.53Z"/>
    <path d="M95.16,52.76c-.24-12.44,9.66-22.72,22.14-22.95,12.41-.23,22.68,9.66,22.92,22.1.24,12.45-9.66,22.72-22.07,22.96-12.48.24-22.76-9.66-22.99-22.11ZM117.74,53.89c.86-.02,1.54-.73,1.53-1.59-.02-.86-.73-1.54-1.59-1.53-.86.02-1.54.73-1.53,1.59.02.86.73,1.54,1.59,1.53Z"/>
    <path class="cls-35" d="M95.32,52.75c-.23-12.35,9.59-22.56,21.98-22.79,12.32-.23,22.53,9.59,22.76,21.95.23,12.36-9.59,22.57-21.91,22.8-12.39.23-22.6-9.59-22.83-21.95ZM117.74,53.89c.86-.02,1.54-.73,1.53-1.59-.02-.86-.73-1.54-1.59-1.53-.86.02-1.54.73-1.53,1.59.02.86.73,1.54,1.59,1.53Z"/>
    <path d="M95.91,52.74c-.23-12.02,9.34-21.96,21.4-22.18,11.99-.23,21.92,9.34,22.15,21.36.23,12.03-9.34,21.96-21.33,22.19-12.06.23-22-9.34-22.22-21.37ZM117.74,53.89c.86-.02,1.54-.73,1.53-1.59-.02-.86-.73-1.54-1.59-1.53-.86.02-1.54.73-1.53,1.59.02.86.73,1.54,1.59,1.53Z"/>
    <path class="cls-41" d="M96.04,52.74c-.23-11.95,9.28-21.83,21.27-22.05,11.92-.23,21.79,9.28,22.02,21.23.23,11.96-9.28,21.83-21.2,22.06-11.99.23-21.87-9.28-22.09-21.24ZM117.74,53.89c.86-.02,1.54-.73,1.53-1.59-.02-.86-.73-1.54-1.59-1.53-.86.02-1.54.73-1.53,1.59.02.86.73,1.54,1.59,1.53Z"/>
    <path d="M96.66,52.73c-.22-11.63,9.03-21.23,20.66-21.45,11.62-.22,21.23,9.03,21.45,20.66.22,11.63-9.03,21.23-20.65,21.45-11.63.22-21.24-9.03-21.46-20.66ZM117.74,53.86c.84-.02,1.51-.71,1.5-1.56-.02-.84-.71-1.51-1.56-1.5-.84.02-1.51.71-1.5,1.56.02.84.71,1.51,1.56,1.5Z"/>
    <path class="cls-42" d="M100.41,52.66c-.18-9.56,7.42-17.45,16.98-17.63,9.55-.18,17.45,7.42,17.63,16.97.18,9.56-7.42,17.45-16.97,17.63-9.56.18-17.45-7.42-17.63-16.98ZM117.75,53.99c.91-.02,1.64-.77,1.62-1.68-.02-.91-.77-1.64-1.69-1.62-.91.02-1.64.77-1.62,1.69.02.91.77,1.64,1.69,1.62Z"/>
    <path class="cls-42" d="M103.79,52.33c0,.09,0,.18,0,.27.15,7.68,6.51,13.81,14.19,13.66,7.53-.14,13.66-6.39,13.66-13.92,0-.09,0-.18,0-.27-.07-3.72-1.58-7.19-4.26-9.77-2.68-2.58-6.2-3.96-9.92-3.89-7.54.14-13.67,6.39-13.67,13.92h0Z"/>
  </g>
  <path d="M223.31,157.45c-3.39-.3-6.82-.58-10.24-.86v-2.11c1.6.09,3.2.19,4.81.28.1,0,.19,0,.29,0,1.21,0,2.38-.46,3.27-1.3.96-.9,1.5-2.16,1.5-3.48v-4.65s0,0,0,0v-6.43s0-4.05,0-4.05c0-2.55-2.01-4.65-4.56-4.77-1.75-.08-3.52-.16-5.31-.23v-1.7c3.01.06,6.01.12,8.97.19.04,0,.07,0,.11,0,1.25,0,2.44-.49,3.34-1.36.92-.9,1.44-2.13,1.44-3.41v-4.66s0,0,0,0v-9.17s0-4.59,0-4.59c0-2.63-2.13-4.77-4.77-4.77-8.51-.01-17.03-.02-25.54-.03,0-.03,0-.05,0-.08v-8.76c0-2.64-2.14-4.77-4.77-4.77h-5.29v-31.51c0-2.64-2.14-4.77-4.77-4.77h-10.13c-.4,0-.79.07-1.16.16-.37-.09-.76-.16-1.16-.16h-10.55c-2.19,0-4.1,1.49-4.63,3.62l-.16.64-.17-.66c-.54-2.12-2.44-3.6-4.63-3.6h-12.46c-.41,0-.81.05-1.19.15-.37-.09-.75-.15-1.14-.15h-9.31c-1.3,0-2.54.53-3.44,1.46-.1.11-.2.22-.3.34-.89-1.11-2.25-1.8-3.73-1.8h-13.97c-.71,0-1.38.17-1.99.44-.61-.28-1.27-.44-1.99-.44h-10.13c-.45,0-.88.08-1.3.2-.42-.12-.85-.2-1.3-.2h-10.41c-2.35,0-4.34,1.7-4.71,4.02l-1.05,6.59-1.1-6.61c-.38-2.3-2.37-3.99-4.71-3.99h-11.77c-1.45,0-2.82.66-3.73,1.79-.91,1.13-1.25,2.62-.93,4.03l9.97,44.04c-2.17,0-4.33,0-6.5,0-2.63,0-4.77,2.14-4.77,4.77v2.04c-4.34-5.04-10.88-7.6-19.63-7.62h-.18c-9.47,0-16.59,3.72-21.18,11.05C2.04,117.3,0,127.11,0,140.57c0,.79,0,1.56.02,2.33C0,143.67,0,144.44,0,145.23c0,12.53,1.85,21.74,5.64,28.17,4.15,7.03,10.8,10.75,19.22,10.75.98,0,2-.05,3.04-.15,5.69-.51,11.91-2.24,16.81-6.59h2.61c.21.91.68,1.75,1.37,2.4.89.84,2.06,1.3,3.27,1.3.09,0,.19,0,.28,0,5.25-.31,10.59-.59,15.86-.83,1.87-.08,3.45-1.24,4.16-2.87h4.45c.22.37.47.72.78,1.03.89.86,2.08,1.34,3.32,1.34.05,0,.1,0,.16,0,5.31-.17,10.68-.31,15.98-.41.53,0,1.03-.13,1.51-.29.44.13.9.21,1.37.21.02,0,.04,0,.06,0,4.78-.06,9.63-.09,14.42-.09h1.77s0,0,0,0c1.48,0,2.82-.69,3.71-1.78h10.87c.86,1.17,2.22,1.93,3.75,1.96,6.28.12,12.63.29,18.87.51.06,0,.11,0,.17,0,.4,0,.8-.06,1.18-.15.56.27,1.19.44,1.85.47,5.27.23,10.61.5,15.86.8.09,0,.18,0,.28,0,1.22,0,2.39-.46,3.28-1.3.66-.62,1.11-1.42,1.33-2.29h5.72c0,2.5,1.93,4.57,4.42,4.75,11.72.87,23.49,1.95,34.99,3.21.17.02.35.03.52.03,1.17,0,2.31-.43,3.19-1.22,1.01-.91,1.59-2.2,1.59-3.55v-18.44c0-2.47-1.89-4.54-4.35-4.75Z"/>
  <g>
    <path class="cls-11" d="M53.18,55.24h11.77l5.75,34.71h.27l5.55-34.71h10.41l-10.27,45.05h-13.28l-10.2-45.05Z"/>
    <path class="cls-11" d="M89.54,55.24h10.13v45.05h-10.13v-45.05Z"/>
    <path class="cls-11" d="M103.64,55.24h13.97l8.42,28.41h.07l-1.03-28.41h9.31v45.05h-11.3l-10.95-33.48h-.07l.89,33.48h-9.31v-45.05Z"/>
    <path class="cls-11" d="M147.94,84.13l-11.23-28.89h12.46l4.72,18.62h.21l4.66-18.62h10.54l-11.23,28.89v16.16h-10.13v-16.16Z"/>
    <path class="cls-11" d="M171.64,55.24h10.13v36.28h10.06v8.76h-20.2v-45.05Z"/>
  </g>
  <g>
    <path class="cls-11" d="M4.77,140.57c0-24.95,7.21-36.35,22.82-36.27,14.53.04,21.2,7.78,21.19,24.54,0,1.93-.11,4.89-.22,6.83-4.52.14-9.04.29-13.56.46.11-2.48.11-4.65.11-6.2,0-8.88-2.04-12.36-6.34-12.3-5.38.08-7.75,5.69-7.75,22.11,0,16.11,2.36,21.8,8.06,21.39,3.98-.28,6.13-3.52,6.14-12.4,0-1.45-.11-3.51-.21-4.85,4.55-.21,9.11-.4,13.66-.57.11,1.22.21,3.15.21,5.08,0,15.87-6.8,24.89-21.42,26.2-15.27,1.45-22.68-9.48-22.68-34.02Z"/>
    <path class="cls-11" d="M52,105.11c7.18,0,14.35,0,21.53-.01,16.03,0,23.35,6.01,23.35,19.11,0,8.87-2.59,13.61-9.37,15.59,0,.03,0,.07,0,.1,6.68,1.29,9.37,5.21,9.36,11.32,0,6.24,0,12.48,0,18.73-5.35.1-10.7.23-16.05.41,0-6.12,0-12.23,0-18.35,0-4.26-2.15-6.11-6.89-5.99-2.01.05-4.02.1-6.03.16,0,8.23,0,16.46-.01,24.68-5.31.24-10.62.51-15.93.83.01-22.19.03-44.38.04-66.57ZM73.51,136.66c5.28-.1,7.75-2.91,7.75-9.65,0-6.84-2.47-9.2-7.96-9.16-1.79.01-3.59.03-5.38.05,0,6.3,0,12.59-.01,18.89,1.87-.04,3.73-.08,5.6-.12Z"/>
    <path class="cls-11" d="M132.35,157.3c-4.67-.06-9.33-.1-14-.11-.75,4.19-1.51,8.38-2.26,12.58-5.42,0-10.84.02-16.27.09,5.39-21.66,10.78-43.21,16.16-64.77,7.03,0,14.06,0,21.09,0,5.46,21.64,10.92,43.39,16.39,65.37-6.32-.22-12.64-.39-18.95-.51-.72-4.22-1.44-8.43-2.16-12.65ZM130.62,147.33c-1.69-9.67-3.38-19.32-5.06-28.96-.14,0-.29,0-.43,0-1.69,9.64-3.37,19.27-5.06,28.9,3.52.01,7.04.04,10.55.07Z"/>
    <path class="cls-11" d="M156.67,117.88c-4.05-.04-8.11-.07-12.16-.09,0-4.23,0-8.46,0-12.69,13.38,0,26.76.01,40.14.02,0,4.36,0,8.72,0,13.08-4.02-.06-8.04-.11-12.05-.16.01,17.85.02,35.69.03,53.54-5.31-.31-10.62-.57-15.93-.8,0-17.63-.02-35.27-.03-52.9Z"/>
    <path class="cls-11" d="M187.7,105.13c11.48,0,22.96.02,34.44.04,0,4.59,0,9.17,0,13.76-6.17-.14-12.34-.26-18.51-.37,0,5.24,0,10.47,0,15.71,4.84.19,9.68.39,14.52.61,0,3.49,0,6.98,0,10.47-4.84-.29-9.68-.56-14.52-.81,0,5.38,0,10.75,0,16.13,6.42.47,12.83.98,19.24,1.55v13.78c-11.71-1.28-23.43-2.35-35.16-3.23-.01-22.54-.02-45.09-.04-67.63Z"/>
  </g>
</svg>